<svg width="24" height="20" fill="none" xmlns="http://www.w3.org/2000/svg"><path d="M7.548 19.505c9.057 0 14.01-7.503 14.01-14.01 0-.213-.005-.425-.014-.636A10.02 10.02 0 0024 2.309a9.822 9.822 0 01-2.828.775A4.942 4.942 0 0023.338.36a9.87 9.87 0 01-3.127 1.196 4.925 4.925 0 00-8.392 4.49A13.98 13.98 0 011.67.902a4.906 4.906 0 00-.667 2.475 4.92 4.92 0 002.192 4.098 4.889 4.889 0 01-2.23-.616c-.002.02-.002.042-.002.063a4.926 4.926 0 003.95 4.827 4.93 4.93 0 01-2.223.085 4.93 4.93 0 004.6 3.42 9.88 9.88 0 01-6.115 2.108c-.398 0-.79-.023-1.175-.068a13.94 13.94 0 007.548 2.211z" fill="#000"/></svg>