<svg width="130" height="80" fill="none" xmlns="http://www.w3.org/2000/svg"><path d="M29.23 3.525L29.2 7.05l-1.067.31c-1.838.54-3.139 1.062-5.017 1.983l-1.808.89-2.53-2.482-2.528-2.493-5.434 5.356-5.433 5.357 2.519 2.503 2.518 2.503-.924 1.802c-.924 1.803-1.666 3.625-2.092 5.147l-.224.81H0v15.22h3.605c3.149 0 3.606.02 3.606.15 0 .26.965 3.044 1.422 4.105.233.551.731 1.572 1.097 2.283l.68 1.272-2.519 2.483-2.508 2.473 5.433 5.357 5.434 5.356 2.519-2.483 2.529-2.493 1.158.61c1.97 1.022 3.757 1.713 6.672 2.574.091.03.122.821.122 3.544v3.505h15.336l.02-3.524.03-3.515 1.067-.33c1.869-.561 3.047-1.032 4.956-1.963l1.87-.91 2.498 2.462 2.508 2.473 5.434-5.356 5.433-5.357-2.518-2.483-2.52-2.483.529-.942c.945-1.712 1.879-3.955 2.478-5.927l.264-.881 3.575-.02 3.575-.03V28.787l-3.554-.03-3.555-.03-.59-1.772c-.609-1.843-1.431-3.735-2.244-5.147l-.477-.82 2.519-2.484 2.518-2.483-5.433-5.357-5.434-5.356-2.508 2.473-2.499 2.463-1.615-.801C49.197 8.582 46.922 7.68 45.48 7.3l-.894-.24V0H29.25l-.02 3.524zm9.242 17.613c6.155.65 11.243 4.685 13.162 10.412.457 1.372.823 4.236.742 5.798-.173 3.244-1.524 6.468-3.799 9.061-3.554 4.055-9.211 5.977-14.564 4.956-3.189-.6-5.718-1.942-8.074-4.255-1.798-1.762-2.986-3.645-3.748-5.898-1.553-4.605-.883-9.361 1.89-13.476.822-1.232 2.853-3.244 4.072-4.035 3.098-2.033 6.774-2.944 10.319-2.564zm77.594 3.864l-.031 1.07-.782.271c-.437.15-.985.38-1.239.52l-.447.241-.792-.78-.802-.792-1.646 1.622c-.914.901-1.655 1.672-1.655 1.732 0 .06.335.441.751.841l.762.741-.244.41c-.132.231-.355.762-.507 1.182l-.285.781h-2.204v4.806h2.204l.122.42c.071.241.295.782.498 1.212l.355.781-.721.721c-.406.4-.731.771-.731.821 0 .05.741.831 1.645 1.723l1.656 1.632.782-.771.782-.771.802.37c.437.21.995.43 1.249.5l.447.13.031 1.122.03 1.122h4.753l.031-1.112.03-1.111.762-.28c.416-.15.965-.37 1.208-.491l.447-.23.793.78.802.792 1.696-1.682 1.706-1.673-.802-.79-.792-.782.284-.54c.152-.3.386-.831.508-1.192l.233-.65 1.128-.03 1.117-.03V32.85l-1.117-.03-1.128-.03-.233-.65a10.94 10.94 0 00-.508-1.192l-.284-.54.772-.762.771-.76-1.675-1.653-1.676-1.652-.742.731c-.406.39-.771.721-.822.721-.051 0-.366-.13-.711-.29-.345-.16-.884-.37-1.199-.47l-.589-.181V23.93h-4.763l-.03 1.072zm3.95 5.747c.823.28 1.331.6 1.93 1.211 2.57 2.694 1.29 7-2.356 7.94-2.174.55-4.51-.55-5.505-2.613-.345-.71-.386-.891-.416-1.772-.031-.601.01-1.162.081-1.452.731-2.673 3.626-4.215 6.266-3.314zM85.058 40.46a248.635 248.635 0 00-3.9 1.543c-.02.03.285.871.681 1.872.406.991.721 1.822.71 1.833-.405.24-1.817 1.491-2.538 2.242l-.945 1.002-1.726-.741c-.945-.41-1.778-.751-1.838-.751-.092 0-3.555 7.69-3.474 7.75.01.02.833.37 1.808.79l1.777.761-.05.581c-.031.32-.051 1.392-.051 2.393v1.812l-1.798.691c-.995.38-1.808.731-1.808.791 0 .08 3.027 7.75 3.098 7.83.01.02.812-.29 1.777-.67.975-.391 1.818-.702 1.89-.702.06 0 .314.26.568.57.579.722 1.483 1.643 2.245 2.304l.589.5-.782 1.773c-.447 1.01-.742 1.802-.691 1.852.05.04.731.35 1.513.68.782.341 2.489 1.062 3.788 1.623 1.3.56 2.397 1.011 2.448 1.011.04 0 .416-.78.843-1.722l.762-1.732h4.875l.69 1.752c.376.961.721 1.782.752 1.822.03.03.498-.11 1.026-.31a542.5 542.5 0 013.991-1.552c1.899-.741 3.016-1.222 2.986-1.292-.518-1.241-1.412-3.584-1.381-3.604.772-.52 2.417-2.053 3.158-2.944l.264-.32 1.808.79c1.006.431 1.849.752 1.879.722.071-.08 3.311-7.41 3.362-7.61.02-.09-.589-.4-1.778-.901l-1.818-.771.082-.5c.04-.281.081-1.352.081-2.404l.01-1.892 1.727-.68c.954-.361 1.767-.682 1.818-.702.111-.05-3.007-7.89-3.139-7.89-.05 0-.843.29-1.757.651-.904.35-1.706.651-1.777.671-.081.02-.488-.38-.904-.881a17.886 17.886 0 00-1.625-1.642c-.457-.41-.853-.771-.873-.811-.021-.05.315-.881.741-1.842.427-.972.762-1.783.741-1.803-.02-.01-1.787-.77-3.93-1.692-2.966-1.271-3.92-1.642-3.981-1.542-.051.07-.417.891-.823 1.813l-.741 1.682-.305-.07c-.162-.04-1.26-.08-2.417-.09l-2.123-.02-.71-1.763c-.387-.981-.762-1.772-.823-1.762-.071 0-1.859.67-3.982 1.502zm9.303 10.564c1.768.33 3.17 1.072 4.51 2.393 1.026 1.021 1.635 1.973 2.092 3.284.599 1.722.62 3.304.071 5.107-.508 1.672-1.117 2.683-2.275 3.784-.853.801-1.452 1.212-2.407 1.642-2.468 1.122-5.21 1.052-7.698-.21-2.824-1.442-4.662-4.405-4.662-7.54 0-2.272.833-4.295 2.417-5.937 2.092-2.162 4.987-3.073 7.953-2.523z" fill="#fff"/></svg>