<svg width="100" height="100" fill="none" xmlns="http://www.w3.org/2000/svg"><path d="M50 16.666C31.62 16.666 16.667 31.62 16.667 50c0 18.38 14.953 33.333 33.333 33.333S83.333 68.38 83.333 50 68.38 16.666 50 16.666zm17.053 12.452a2.078 2.078 0 011.465-.686c.484-.055 1.107.181 1.514.568 4.321 4.091 7.259 9.3 8.488 15.061a2.086 2.086 0 01-1.083 2.287c-2.038 1.054-4.46 1.564-6.779 1.564-3.023 0-5.888-.866-7.548-2.527-3.532-3.53-2.059-9.61 3.943-16.267zm-34.106 42.09a2.08 2.08 0 01-1.465.687c-.024.002-.053.002-.081.002a2.082 2.082 0 01-1.433-.57c-4.32-4.091-7.259-9.3-8.488-15.063a2.086 2.086 0 011.083-2.287c4.696-2.423 11.393-1.971 14.327.963 3.528 3.53 2.054 9.61-3.943 16.267zm3.943-25.822c-1.66 1.66-4.525 2.527-7.548 2.527-2.32 0-4.737-.511-6.78-1.565a2.086 2.086 0 01-1.082-2.287C22.71 38.3 25.647 33.091 29.968 29c.407-.387 1.005-.627 1.514-.568.561.023 1.09.269 1.465.686 6.002 6.657 7.474 12.738 3.943 16.268zM58.879 77.78A29.2 29.2 0 0150 79.167c-3.007 0-5.994-.466-8.879-1.386a2.089 2.089 0 01-1.448-2.13C40.193 68.154 44.633 62.5 50 62.5s9.806 5.654 10.327 13.15a2.089 2.089 0 01-1.448 2.131zM41.666 50c0-4.596 3.739-8.334 8.333-8.334s8.333 3.738 8.333 8.334-3.74 8.333-8.333 8.333c-4.594 0-8.333-3.737-8.333-8.333zm18.66-25.486c-.52 7.495-4.96 13.149-10.327 13.149s-9.806-5.654-10.327-13.15a2.082 2.082 0 011.444-2.128 29.227 29.227 0 0117.766 0 2.082 2.082 0 011.444 2.129zM78.52 55.932c-1.23 5.764-4.167 10.973-8.488 15.064-.387.366-.9.57-1.432.57-.029 0-.057 0-.082-.002a2.079 2.079 0 01-1.465-.686c-6.001-6.657-7.474-12.74-3.943-16.27 2.934-2.935 9.628-3.381 14.327-.962a2.086 2.086 0 011.083 2.286z" fill="#fff"/><path d="M50 0C22.428 0 0 22.43 0 50s22.428 50 50 50 50-22.43 50-50S77.572 0 50 0zm0 87.5c-20.679 0-37.5-16.823-37.5-37.5S29.321 12.5 50 12.5 87.5 29.323 87.5 50 70.679 87.5 50 87.5z" fill="#fff"/></svg>