<svg width="100" height="71" fill="none" xmlns="http://www.w3.org/2000/svg"><path d="M80.19.066c-.085.055-1.718 1.523-3.632 3.265a5247.8 5247.8 0 01-10.578 9.641c-3.906 3.563-7.164 6.547-7.235 6.64-.07.087-.257.571-.421 1.063-.953 2.906-2.282 5.055-3.664 5.93-.852.531-3.649 1.883-3.914 1.883-.055 0-.422-.157-.829-.344l-9.054-4.188c-4.578-2.109-8.352-3.875-8.391-3.906-.039-.039-.094-.398-.133-.797-.203-2.242-.734-4.117-1.75-6.195-2.89-5.922-8.672-9.547-14.843-9.312-3.337.132-6.454 1.289-9.368 3.484-1.61 1.21-3.797 3.664-3.797 4.25 0 .351.399.96.72 1.11.14.062 2.984.609 6.312 1.202 3.328.602 6.867 1.243 7.867 1.422l1.805.328 1.945 3.524c1.062 1.937 1.937 3.547 1.937 3.57 0 .024-1.367 1.274-3.039 2.774-2.562 2.304-3.062 2.726-3.242 2.703-.11-.016-2.695-.446-5.75-.961C-.05 25.269.761 25.402.503 25.503c-.351.149-.531.5-.46.922.07.477.6 2.078.984 2.938 2.273 5.187 6.82 8.726 12.172 9.468 1.007.141 3.28.164 4.203.047 3.031-.406 5.664-1.46 7.945-3.195l.79-.602 7.796 3.594c4.281 1.977 7.789 3.61 7.789 3.64 0 .032-4.117 3.72-9.156 8.212-8.024 7.148-9.203 8.172-9.547 8.289-.219.07-.813.258-1.313.414l-.921.281-2.149 2.547c-2.594 3.078-2.484 2.805-1.515 3.836 1.046 1.117 1.132 1.188 1.421 1.188.203 0 .82-.375 3.024-1.82l2.773-1.829.61-1.18.601-1.18 9.586-8.538c5.273-4.696 9.648-8.586 9.727-8.641.133-.094 1.406.469 11.375 5.07 6.172 2.844 11.25 5.196 11.28 5.219.032.023.095.453.141.945.75 7.735 6.415 14.094 13.594 15.274 4.235.687 8.79-.594 12.54-3.54 1.25-.984 3.39-3.35 3.53-3.913.055-.227-.077-.79-.25-1.055a.879.879 0 00-.296-.266c-.094-.047-1.961-.406-4.156-.797-9.774-1.742-11.875-2.125-11.93-2.171-.063-.07-3.867-6.813-3.93-6.977-.031-.086.797-.867 2.977-2.813 1.664-1.476 3.07-2.718 3.133-2.75.054-.03 1.617.212 3.593.57 1.93.345 5.453.977 7.836 1.407 2.383.43 4.422.781 4.531.781.383 0 1.047-.547 1.133-.937.055-.258-.156-1.016-.593-2.133-1.797-4.539-5.329-8.125-9.563-9.703-1.86-.695-3.383-.93-5.586-.875-1.453.039-2.055.11-3.32.406-2.117.492-4.57 1.703-6.375 3.14l-.586.47-.469-.211c-.25-.11-3.101-1.43-6.336-2.93-5.273-2.438-5.867-2.727-5.805-2.86.141-.25 1.407-1.14 2.258-1.578 1.086-.562 2.086-.93 3.563-1.304.664-.164 1.257-.336 1.32-.367.063-.032 1.367-1.141 2.906-2.454 1.547-1.312 6.446-5.492 10.89-9.273 4.446-3.79 8.173-7 8.267-7.14.164-.227.18-.313.14-.68-.219-1.883-.953-3.86-2.008-5.414-.625-.907-1.836-2.125-2.804-2.813C84.043.933 80.8-.3 80.19.066z" fill="#fff"/></svg>