<svg width="100" height="100" fill="none" xmlns="http://www.w3.org/2000/svg"><path d="M87.084 17.385l-.552-9.312c-.098-1.536-1.378-2.717-2.933-2.619a2.79 2.79 0 00-2.618 2.934l.157 2.736C73.106 5.12 63.361 1.852 53.123 1.852c-12.52 0-24.293 4.882-33.133 13.721a2.792 2.792 0 000 3.938c1.496 1.496 3.386.551 3.938 0 7.796-7.796 18.17-12.108 29.215-12.108 8.78 0 17.128 2.717 24.097 7.757l-2.402.158a2.79 2.79 0 00-2.618 2.933c.079 1.476 1.319 2.618 2.776 2.618.059 0 9.47-.55 9.47-.55a2.79 2.79 0 002.618-2.934zm-44.65 71.228c-19.806-5.296-32.366-24.216-30.397-43.981l1.319 1.988c.531.807 2.224 1.772 3.839.788 1.3-.808 1.634-2.56.787-3.84l-5.118-7.796a2.884 2.884 0 00-1.753-1.2 2.864 2.864 0 00-2.086.393l-7.777 5.119a2.766 2.766 0 00-.787 3.839 2.766 2.766 0 003.839.787l2.303-1.516c-2.697 22.759 11.655 44.69 34.394 50.773.236.06 2.697.355 3.405-1.968.453-1.457-.472-2.993-1.968-3.386zm55.97-52.033a2.792 2.792 0 00-3.406-1.969 2.792 2.792 0 00-1.969 3.406c5.296 19.805-4.784 40.162-22.896 48.332l1.063-2.146a2.762 2.762 0 00-1.24-3.721c-1.378-.689-3.052-.138-3.721 1.24l-4.174 8.328a2.762 2.762 0 001.24 3.72l8.328 4.175c.394.196 2.619.689 3.721-1.24.768-1.34.138-3.033-1.24-3.722l-2.5-1.26c21.065-9.016 32.877-32.385 26.794-55.143zM40.307 58.688l5-5.217c1.95-2.028 5.1-4.902 5.1-9.095 0-2.619-2.008-8.466-8.997-8.466-5.316 0-8.86 4.095-10.159 6.103l4.942 2.934c1.555-2.481 3.209-3.721 4.941-3.721 3.367 0 3.248 2.323 3.248 3.248 0 2.441-2.913 5.178-4.547 6.851l-8.111 8.308v4.587h19.51v-5.532H40.306zm31.559-6.438v-4.823H65.94v4.823h-3.918l9.371-15.71H64.68l-9.864 16.34v4.706H65.94V64.2h5.926v-6.614h3.13V52.25h-3.13zm9.863-19.273c-.945 0-1.792.374-2.54 1.142v-4.41h-2.5v12.363h2.5V37.23c0-.708.177-2.126 1.87-2.126 1.005 0 1.516.69 1.516 2.067v4.902h2.5V36.64c0-1.772-1.102-3.662-3.346-3.662z" fill="#fff"/></svg>