<svg width="40" height="40" fill="none" xmlns="http://www.w3.org/2000/svg"><path d="M20 36.429a.715.715 0 01-.396-.12L17.46 34.88l.792-1.189L20.216 35h3.166a34.866 34.866 0 01-.9-3.571h-3.91a.715.715 0 01-.397-.12l-2.143-1.429.793-1.189L18.788 30h3.434a54.965 54.965 0 01-.473-3.571h-3.892a.715.715 0 01-.396-.12l-2.143-1.429.792-1.189L18.073 25h3.548a65.042 65.042 0 01-.175-3.571h-3.589a.715.715 0 01-.396-.12l-2.143-1.429.792-1.189L18.073 20h3.356c0-1.188.034-2.384.099-3.571h-3.67a.715.715 0 01-.397-.12l-2.143-1.429.792-1.189L18.073 15h3.548c.094-1.214.221-2.41.382-3.571H18.57a.715.715 0 01-.396-.12L16.032 9.88l.793-1.189L18.788 10h3.434a41 41 0 01.752-3.571h-3.688a.715.715 0 01-.396-.12L16.747 4.88l.792-1.189L19.502 5h3.88c.666-2.127 1.497-3.87 2.487-5H13.571c-1.3 0-3.12 1.833-4.68 5h3.036l1.963-1.309.792 1.19-2.143 1.428a.715.715 0 01-.396.12H8.245A30.178 30.178 0 007.025 10h3.473l1.963-1.309.792 1.19-2.143 1.428a.716.716 0 01-.396.12H6.665A36.734 36.734 0 006.031 15h3.038l1.963-1.309.793 1.19-2.143 1.428a.716.716 0 01-.396.12h-3.41A39.814 39.814 0 005.715 20H9.07l1.963-1.309.793 1.19-2.143 1.428a.716.716 0 01-.396.12H5.743A38.88 38.88 0 006.031 25h3.753l1.963-1.309.792 1.19-2.143 1.428a.716.716 0 01-.396.12H6.24a35.33 35.33 0 00.903 3.987V30h4.07l1.962-1.309.793 1.19-2.143 1.428a.715.715 0 01-.396.12H7.452A27.19 27.19 0 008.89 35h3.75l1.964-1.309.792 1.19-2.143 1.428a.715.715 0 01-.396.12h-3.19C11.026 38.709 12.48 40 13.57 40h12.3c-.758-.865-1.422-2.091-1.991-3.571H20zm8.571-7.143c1.184 0 2.143-4.158 2.143-9.286 0-5.128-.96-9.286-2.143-9.286-1.183 0-2.142 4.158-2.142 9.286 0 5.128.959 9.286 2.142 9.286z" fill="#fff"/><path d="M28.571 0c-2.703 0-5.714 8.214-5.714 20s3.012 20 5.714 20c2.703 0 5.715-8.214 5.715-20S31.274 0 28.57 0zm0 30.714C26.117 30.714 25 25.16 25 20s1.117-10.714 3.571-10.714S32.143 14.84 32.143 20s-1.118 10.714-3.572 10.714z" fill="#fff"/></svg>