<svg width="32" height="32" fill="none" xmlns="http://www.w3.org/2000/svg"><path d="M16 29.143a.572.572 0 01-.317-.096l-1.714-1.143.634-.95L16.173 28h2.533a27.918 27.918 0 01-.72-2.857h-3.129a.572.572 0 01-.317-.096l-1.714-1.143.634-.95L15.03 24h2.748a44.06 44.06 0 01-.38-2.857h-3.112a.572.572 0 01-.317-.096l-1.715-1.143.634-.95L14.458 20h2.839a52.255 52.255 0 01-.14-2.857h-2.871a.572.572 0 01-.317-.096l-1.715-1.143.634-.95L14.458 16h2.685c0-.95.027-1.907.08-2.857h-2.937a.572.572 0 01-.317-.096l-1.715-1.143.634-.95L14.458 12h2.839a48.06 48.06 0 01.305-2.857h-2.745a.572.572 0 01-.317-.096l-1.714-1.143.634-.95L15.03 8h2.748c.168-1.003.368-1.962.601-2.857h-2.95a.572.572 0 01-.317-.096l-1.715-1.143.634-.95L15.601 4h3.105c.532-1.701 1.197-3.096 1.99-4h-9.839c-1.04 0-2.496 1.466-3.745 4h2.43l1.57-1.047.633.951-1.714 1.143a.572.572 0 01-.317.096H6.596C6.237 6.005 5.906 6.96 5.62 8h2.778l1.57-1.047.635.951-1.715 1.143a.573.573 0 01-.317.096H5.332c-.207.901-.38 1.855-.507 2.857h2.43l1.57-1.047.635.951-1.715 1.143a.572.572 0 01-.316.096H4.7A31.85 31.85 0 004.571 16h2.685l1.57-1.047.634.951-1.715 1.143a.572.572 0 01-.316.096H4.594c.035.988.114 1.942.23 2.857h3.003l1.57-1.047.634.951-1.714 1.143a.572.572 0 01-.317.096H4.993c.19 1.135.435 2.202.721 3.19V24H8.97l1.57-1.047.634.951-1.714 1.143a.572.572 0 01-.317.096H5.962c.346 1.06.736 2.017 1.15 2.857h3l1.57-1.047.635.951-1.714 1.143a.572.572 0 01-.317.096H7.733C8.822 30.967 9.985 32 10.857 32h9.838c-.606-.692-1.138-1.673-1.593-2.857H16zm6.857-5.714c.947 0 1.715-3.326 1.715-7.429s-.768-7.429-1.715-7.429c-.947 0-1.714 3.326-1.714 7.429s.767 7.429 1.714 7.429z" fill="#fff"/><path d="M22.857 0c-2.162 0-4.571 6.57-4.571 16s2.409 16 4.571 16c2.163 0 4.572-6.57 4.572-16s-2.41-16-4.572-16zm0 24.571C20.894 24.571 20 20.128 20 16s.894-8.571 2.857-8.571 2.857 4.443 2.857 8.571-.894 8.571-2.857 8.571z" fill="#fff"/></svg>