<svg width="64" height="64" fill="none" xmlns="http://www.w3.org/2000/svg"><path d="M32 58.286c-.225 0-.446-.067-.634-.192l-3.429-2.286 1.268-1.902L32.346 56h5.065a55.8 55.8 0 01-1.439-5.714h-6.258c-.225 0-.446-.067-.634-.192l-3.428-2.286 1.268-1.902L30.06 48h5.496a88.113 88.113 0 01-.758-5.714H28.57c-.225 0-.446-.067-.634-.192l-3.428-2.286 1.268-1.902L28.917 40h5.677a104.21 104.21 0 01-.28-5.714H28.57c-.225 0-.446-.067-.634-.192l-3.428-2.286 1.268-1.902L28.917 32h5.369c0-1.9.055-3.814.159-5.714H28.57c-.225 0-.446-.067-.634-.192l-3.428-2.286 1.268-1.902L28.917 24h5.677c.15-1.942.353-3.857.61-5.714h-5.49c-.225 0-.446-.067-.634-.192l-3.428-2.286 1.268-1.902L30.06 16h5.496a66.156 66.156 0 011.202-5.714h-5.9c-.226 0-.447-.067-.635-.192l-3.428-2.286 1.267-1.902L31.203 8h6.208c1.066-3.403 2.395-6.191 3.98-8H21.714c-2.08 0-4.992 2.933-7.49 8h4.859l3.14-2.094 1.268 1.902-3.429 2.286a1.145 1.145 0 01-.633.192h-6.237A48.296 48.296 0 0011.239 16h5.558l3.14-2.094 1.268 1.902-3.428 2.286a1.146 1.146 0 01-.634.192h-6.478A58.763 58.763 0 009.65 24h4.861l3.14-2.094 1.269 1.902-3.429 2.286a1.145 1.145 0 01-.634.192H9.402A63.712 63.712 0 009.142 32h5.37l3.14-2.094 1.268 1.902-3.429 2.286a1.145 1.145 0 01-.634.192H9.188A62.76 62.76 0 009.65 40h6.004l3.14-2.094 1.268 1.902-3.428 2.286a1.145 1.145 0 01-.634.192H9.985c.38 2.27.87 4.403 1.444 6.38V48h6.51l3.141-2.094 1.268 1.902-3.428 2.286a1.145 1.145 0 01-.634.192h-6.362a43.412 43.412 0 002.3 5.714h6.001l3.14-2.094 1.269 1.902-3.429 2.286a1.144 1.144 0 01-.634.192h-5.105C17.644 61.935 19.97 64 21.714 64h19.677c-1.214-1.385-2.276-3.346-3.187-5.714H32zm13.714-11.429c1.894 0 3.429-6.652 3.429-14.857 0-8.205-1.535-14.857-3.429-14.857-1.893 0-3.428 6.652-3.428 14.857 0 8.205 1.535 14.857 3.428 14.857z" fill="#fff"/><path d="M45.714 0c-4.324 0-9.143 13.142-9.143 32s4.819 32 9.143 32c4.325 0 9.143-13.142 9.143-32S50.04 0 45.714 0zm0 49.143C41.788 49.143 40 40.257 40 32c0-8.257 1.788-17.143 5.714-17.143 3.927 0 5.715 8.886 5.715 17.143 0 8.257-1.788 17.143-5.715 17.143z" fill="#fff"/></svg>