<svg width="108" height="32" fill="none" xmlns="http://www.w3.org/2000/svg"><path d="M16 29.143a.572.572 0 01-.317-.096l-1.714-1.143.634-.95L16.173 28h2.533a27.918 27.918 0 01-.72-2.857h-3.129a.572.572 0 01-.317-.096l-1.714-1.143.634-.95L15.03 24h2.748a44.06 44.06 0 01-.38-2.857h-3.112a.572.572 0 01-.317-.096l-1.715-1.143.634-.95L14.458 20h2.839a52.255 52.255 0 01-.14-2.857h-2.871a.572.572 0 01-.317-.096l-1.715-1.143.634-.95L14.458 16h2.685c0-.95.027-1.907.08-2.857h-2.937a.572.572 0 01-.317-.096l-1.715-1.143.634-.95L14.458 12h2.839a48.06 48.06 0 01.305-2.857h-2.745a.572.572 0 01-.317-.096l-1.714-1.143.634-.95L15.03 8h2.748c.168-1.003.368-1.962.601-2.857h-2.95a.572.572 0 01-.317-.096l-1.715-1.143.634-.95L15.601 4h3.105c.532-1.701 1.197-3.096 1.99-4h-9.839c-1.04 0-2.496 1.466-3.745 4h2.43l1.57-1.047.633.951-1.714 1.143a.572.572 0 01-.317.096H6.596C6.237 6.005 5.906 6.96 5.62 8h2.778l1.57-1.047.635.951-1.715 1.143a.573.573 0 01-.317.096H5.332c-.207.901-.38 1.855-.507 2.857h2.43l1.57-1.047.635.951-1.715 1.143a.572.572 0 01-.316.096H4.7A31.85 31.85 0 004.571 16h2.685l1.57-1.047.634.951-1.715 1.143a.572.572 0 01-.316.096H4.594c.035.988.114 1.942.23 2.857h3.003l1.57-1.047.634.951-1.714 1.143a.572.572 0 01-.317.096H4.993c.19 1.135.435 2.202.721 3.19V24H8.97l1.57-1.047.634.951-1.714 1.143a.572.572 0 01-.317.096H5.962c.346 1.06.736 2.017 1.15 2.857h3l1.57-1.047.635.951-1.714 1.143a.572.572 0 01-.317.096H7.733C8.822 30.967 9.985 32 10.857 32h9.838c-.606-.692-1.138-1.673-1.593-2.857H16zm6.857-5.714c.947 0 1.715-3.326 1.715-7.429s-.768-7.429-1.715-7.429c-.947 0-1.714 3.326-1.714 7.429s.767 7.429 1.714 7.429z" fill="#fff"/><path d="M22.857 0c-2.162 0-4.571 6.57-4.571 16s2.409 16 4.571 16c2.163 0 4.572-6.57 4.572-16s-2.41-16-4.572-16zm0 24.571C20.894 24.571 20 20.128 20 16s.894-8.571 2.857-8.571 2.857 4.443 2.857 8.571-.894 8.571-2.857 8.571zM44.516 7.258l-.27.07c-.11 0-.258-.14-.445-.422h-.059v-.21h.434l.34.093v.469zm0 1.957l-.106.316h.106v.516h-.153l.047-.352v-.058h-.047l-.187.41h-.668v-.152h-.117c0 .101-.035.152-.106.152H40.59c0-.133-.133-.2-.399-.2l-.058.048-.106-.153V9.59c0-.07.094-.106.282-.106v-.058c-.188 0-.282-.051-.282-.153v-.257l.106-.106h.234c0 .102.04.152.117.152l.282-.046-.059-.059V8.91l-.059.047h-.164l-.117-.105v-.165c.07-.171.235-.257.492-.257h.07l.06.164.327-.106c0 .133.094.2.282.2v.421h.234v.317l.047.058v.047c.117 0 .176-.07.176-.21l.34-.048-.047-.058v-.047l-.059.047h-.129l-.164-.152-.059-.211h-.164l.059-.059v-.105l-.34-.094.106-.211h-.106v-.528h.223l.281.047c0-.101.035-.152.106-.152h.246l.047.152c-.266.063-.399.207-.399.434h.059c.11-.18.238-.27.386-.27l.118.094-.059.059v.27h.34c.078 0 .117.05.117.152h.117c0-.204.106-.305.317-.305l-.047-.059V8.22l.105-.469-.058-.047h.117c0 .102.039.152.117.152h.176V7.75h-.117l.058-.27v-.093h-.058v.093h-.106l-.07-.199h.293v.153h.222l.059-.047h.047c.062.133.176.199.34.199v.164l-.164.152-.13-.093-.316.093v.106h.223v.058l-.117.094-.059-.047h-.047v.106l.106.316h.117c0-.195.129-.422.387-.68h.047v1.36zm-.551-.363l-.059-.059h-.047l-.175.164.058.059v.093c0 .172-.078.258-.234.258v.164h.07c.164-.14.293-.367.387-.68zm-.457.738v.2l.117-.095-.117-.105zm.07-2.895v.106l-.293.058-.387-.058.118-.106h.562zm-.07 2.32h-.117c0 .063-.07.094-.211.094v.106l.27-.152h.058v-.047zm-.117-1.792c0 .078-.184.183-.551.316v.047l.281.059c0-.11.04-.165.117-.165l.047.27-.164.258v.058h-.164l-.117-.105v-.258a.496.496 0 01-.399-.164v.047l-.047-.047h-.046l-.352.106-.117-.165.176-.152v-.047l-.117-.105c-.282 0-.45.12-.504.363h-.059l.059.047v.059l-.118.105h-.386c0-.18-.04-.27-.117-.27h-.047c-.149.063-.223.188-.223.375.21 0 .316.036.316.106h-.047l.047.152h.07c.079 0 .118-.05.118-.152l.047-.059h.175l.165.106c0 .281-.13.422-.387.422 0-.063-.094-.094-.281-.094v-.117h-.176c-.352.46-.559.691-.621.691-.07 0-.106.086-.106.258l-.058.047h-.282l-.28-.047v.047l.105.27-.059.046h.117c.078 0 .117-.07.117-.21.079 0 .118.09.118.269h.058l-.129.305h.07l.223.058v.094h-1.3L38.175 10l-.504.047h-3.715c-.133 0-.285-.067-.457-.2h-.105l.046.048v.152h-.047L33.337 10l-.27.047h-.726l-.352-.305v-.258l.117-.164.047.047h.188l-.13-.305h-.105v-.316h.235l.094.211v.059h.058l.117-.106v-.058c-.101 0-.215-.106-.34-.317l.07-.316c.25.039.376.094.376.164v.258c.11 0 .164.09.164.27l.352.198h.046V8.91h.34v.2l-.281.316v.105h.059c0-.172.113-.258.34-.258h.058c0 .141.094.247.281.317v.047h-.117v.105h.164l.457-.105V9.53l-.351-.164-.106.117-.445-.574.058-.164h-.058c-.172 0-.285-.137-.34-.41.172-.078.266-.188.281-.328h.176l.117.105v.047l-.058.27.058-.047h.047l.328.105v-.27l-.058.06h-.106v-.165l.234-.105h.06V7.96c-.267 0-.4-.035-.4-.106V7.75l.06-.164h-.06l-.34-.106.06-.046v-.047l-.118-.106c0 .242-.074.364-.222.364l-.27.058-.059-.422-.058.047h-.399c0 .211-.039.317-.117.317h-.34v-.317c0-.062.114-.113.34-.152 0-.25.04-.375.117-.375h.399v.105h.058c0-.14.036-.21.106-.21h.996l.352.374v-.375h.058l.164.106h.176l.164-.106h3.316c.07 0 .106.055.106.164h.059c0-.109.039-.164.117-.164h1.242l.105.106v.058l-.058.047v.047h.058l.282-.258h2.19v.106l-.105.105V6.86l-.176.047v.117h.281c.07 0 .105.102.105.305h.06l.116-.375h.117l.059.07h.059l.058-.07a.498.498 0 00.317.27zm-.27 1.992h-.164v.105l.164-.047v-.058zm-.281.105c-.196 0-.309-.05-.34-.152l.059-.211-.059-.363h-.152l.152.726.105.106h.118l.117-.106zm-1.125-2.367l-.164-.047-.059.047v.07l.164.106.059-.059v-.117zm-.223 2.684l-.117.105v.106h.059l.164-.059v-.047l-.106-.105zm-.117-.469h-.059l-.164.047v.21h.117l.106-.21v-.047zm-.445-2.04l-.07-.058h-.153l.152.153.07-.047v-.047zm-1.36.306v.152h-.047l-.058-.258h-.117v.106h-.223l-.281.046-.106-.304h.047l-.047-.27h-.058l-.059.047h-.059l.118.527h-.117v.106h.41v.27l.21-.047.165.046v.364l-.164.164-.059-.047h-.105l-.118.094h.176v.105l-.234.211h-.059l-.047-.059-.058.06h-.059l-.281-.06v.106l.445.059-.047.058v.106h.047c0-.07.098-.106.293-.106.016-.18.07-.27.164-.27l.457.212v-.165h-.129v-.152l.07-.047V8.43l.282.058h.047v-.105l-.328-.047.058-.059V8.22l-.176-.059V7.81h-.234v-.223h.117v.117h.059l.176-.058v.058c0 .078.129.145.386.2v-.2l-.457-.27zm-.726.468c-.188 0-.282-.03-.282-.093l.06-.164c-.087.07-.216.105-.388.105v.105c0 .063.09.114.27.153l.059-.047.117.2h-.117v.058h.222l.059-.317zm-.059 1.63h-.222c0 .054.074.109.222.163v-.164zm-.328-.259h-.059l-.117.094h.176v-.094zm-.223-2.25h-.117l-.058.153.058.047h.281v-.047l-.164-.153zm-.34 1.887h-.163v.047l.046.152h.117V8.91zm-.163.516h-.06l-.398.058v.153c.18 0 .27.086.27.258.148-.016.266-.118.352-.305l-.165-.164zm-.188-2.203h-.105l-.165.164.118.258h.047l.105-.106-.059-.258.059-.058zm-.105 1.312h-.106v.211l.152.164h.059v-.058l-.105-.317zm-.27.832l-.234-.047v.106h.234v-.059zm-.293-2.238l-.059-.059h-.058v.059h.058l-.058.047v.105h.058l.059-.152zm-.117.2h-.047l-.164.151h.047l.164-.152zm0 1.523h-.106l-.058.316h-.047a.691.691 0 01-.399-.152h-.058v.093c0 .07.078.106.234.106l.059.316h.27l.105-.68zm-.27-1.043h-.047v.199h.106V7.96l-.059-.152zm-.281-.856h-.117v.117l-.059-.047h-.058l-.164.047v-.047l-.059-.164h-.047v.164c.258.125.387.352.387.68h.117l-.117-.48.117-.094v-.176zm0 2.79l-.059-.048h-.175c0 .102-.075.153-.223.153V10c.172-.14.305-.21.398-.21v.105h.059v-.153zm-.96-2.52h-.224l.34.257.059-.046-.176-.211zM35.14 9.59c-.188 0-.282-.09-.282-.27H34.8l-.059.422h.34l.059-.152zm-.399-2.262l-.105.106.047.152h.058v-.258zm-.164-.152h-.059l-.105.105v.047h.105l.06-.047v-.105zm-.351.152h-.059l-.094.106.094.105.059-.21zM33.5 7.07c-.11 0-.164-.054-.164-.164l-.105.117-.06-.07h-.105v.27h.059c.078-.063.203-.094.375-.094V7.07zm-.27.938h-.292l-.106-.106.34-.093.059.046v.153zm-.574 1.582h-.047v.047c.032.21.086.316.164.316h.059v-.21l-.176-.153zm-.445-2.79l-.059.06h-.047l-.117-.106.059-.059h.059l.105.106zm4.195 16.665v-5.883l.176-.281-.059-.176v-.059l.059-.07h-.176v-.457l.117-.129h.176l.07.07c0-.43.079-.644.235-.644l-.059-.246.117-.106h.422v-.117c.157 0 .235-.039.235-.117h-.48l-.294-.07v.07l-.363.117h-.059l-.117-.117v-2.227h.117v.282h.118l.129-.34.292-.117.06-.059h-.177l-.175.117h-.247l-.117-.117v-.41l.059-.059c.117 0 .176-.062.176-.187l-.235-.34v-.527h.117v-.293l-.117-.176v-.059l.117-.117h.246v.117h-.128v.059h.363v-.176h.715v.293h.058l.364-.293h.293c.078 0 .117.059.117.176h.363c0-.117.04-.176.117-.176h.422l.117.117.176-.117h.363l.118.117v.469h-.176c0-.156-.121-.234-.364-.234h-.058l.059.175-.294.352v.059l.352-.293h.129l.176.175v.059l-.059.293c-.242.055-.363.113-.363.176v.058l.363-.175c.078 0 .117-.098.117-.293h.118v1.64l-.176-.058-.117.105c.117 0 .214.082.293.246v2.578h-.118v-.234h-.304l.422.457v.703c-.118.203-.258.305-.422.305 0 .07.062.105.187.105v.305l-.117.117h-.363v-.363c0-.078.058-.117.175-.117l-.117-.164c-.133.187-.293.28-.48.28v.118h-.352l-.058.059.117.187.176-.117h.304c.078 0 .117.113.117.34.157 0 .235.082.235.246l.305-.188h.293v5.356h-3.82zm3.399-3.13l.129-.35-.059-.176h-.129v.527h.059zm.246-1.394l.058-.304-.234-.059v.059l.117.304h.059zm-3.047-.363v-.281h-.117v.281h.117zm1.676-.281c.242 0 .46.094.656.281l.059-.058c-.047-.118-.247-.235-.598-.352l-.117.129zm-.961 0v-.246l-.117.117v.129h.117zm-1.196-.246c.32-.055.48-.13.48-.223h-.175l-.305.223zm1.559-.117l.059-.165v-.058h-.188v.223h.129zm2.027.058l-.058-.058.058-.41v-.118h.118v.586h-.118zm-1.793-.867c.055.188.114.281.176.281 0-.21.102-.386.305-.527v-.223l-.598.41v.059h.117zm-1.617-.059c.11 0 .23.059.364.176h.058l.176-.305-.176-.175h-.059c-.117.156-.238.234-.363.234v.07zm1.137.176c0-.078.062-.117.187-.117v-.059h-.129v-.07l.06-.281c.241-.078.362-.156.362-.235v-.07l-.234.07h-.059l-.07-.07c0-.156-.039-.234-.117-.234v-.34h-.059l-.058.293-.293-.059h-.059l-.129.106v.058l.13.305h.175l.293.059v.117l-.176.164.059.363h.117zm2.273-.305v-.175h-.363v.117l.363.058zm-.656-.527h.059v-.117c-.282-.078-.422-.191-.422-.34h-.176v.223l.176-.047.363.281zm-2.988-.234l-.059-.047v-.54h.117c0 .118.082.22.246.306 0 .203-.101.316-.304.34v-.06zm3.105-.41c0-.055-.078-.114-.234-.176v.117l.234.059zm-1.312-.059l.058-.164h-.058l-.059-.059h-.176l.235.223zm.539-.223l.059-.058c0-.117.058-.176.175-.176v-.129c-.273.14-.41.242-.41.305v.058h.176zm-.961-.527c0 .07.219.125.656.164-.195-.125-.293-.277-.293-.457h-.117c0 .156-.082.234-.246.234v.059zm1.312.047v-.047l.07-.059h-.245v.059l.175.047zm-2.144-.047a.623.623 0 00.363-.293h-.187c-.196 0-.293-.098-.293-.293h-.059c0 .11-.062.164-.187.164v.188l.058.058.188-.058c.078 0 .117.078.117.234zm2.086-.82c0 .156.18.289.539.398v-.223c-.305 0-.465-.078-.48-.234h-.06v.059zm-1.488.281h.117l-.117-.105h-.118l.118.105zm2.449-.223l-.059-.246h-.187l.07.246h.176zm-2.157-.586v-.058l-.058-.176h-.176c0 .078.059.117.176.117v.117h.059zm-.527-.234h.176l-.117-.129h-.188l.13.129zm.832-1.055v-.117c-.117 0-.176-.039-.176-.117h-.129v.047l.305.187zm.352 0c.086-.015.168-.113.246-.293l-.059-.293h-.304v.059c.164 0 .246.059.246.176v.117l-.13.176v.058zm-.95-.234l-.117-.117h-.058v.117h.176zm.481-.586v-.117h-.188l-.117.117h.305zm-.598-.234l.059-.235-.176-.058-.129.175.246.118zm1.793-.118v-.117h-.187v.117h.187zm13.77-4.453l.059.059v2.613l-.34.235v.058l.175.059c0-.117.036-.176.106-.176h.059v.117l-1.477.516-.973.738-.457-.117c.078.172.157.265.235.281 0-.11.035-.164.105-.164v.106c-.648.78-1.062 1.77-1.242 2.964l-.059-.058h-.175c0 .078.058.117.175.117l.059.059v.117c0 .453-.059.68-.176.68h-.059l.06.058v.117l-.118.106-.164-.059-.059.059v.058l.059.059h.058l.164-.059c.141.14.274.73.399 1.77l-.164.164h-.059v.058h.106v-.058c.195 0 .293.172.293.515l-.059.06c.086.023.39.5.914 1.429 0 .086.399.387 1.196.902l.96.235v.164l-.058.058v.059l-.047-.059h-.117v.176h-.117v-.059l.058-.058v-.059l-.34-.058c-.117.343-.328.515-.633.515v.117c.118 0 .176.075.176.223v.059l.223-.059-.047-.059v-.046c.188 0 .281-.04.281-.118v-.117l-.058-.164h.058l.223-.058h.117l.399.105v-.047c.156.055.234.11.234.164l-.059.059v.058H53l-.059.059v.164l.059.059v.058l-.059.059h-.058l-.117-.117c0 .078-.059.117-.176.117l-.047.281h.047l.234-.059c0 .079.074.118.223.118v.117l-.106.281h-.058l-.235-.117-.222.176v.117h.117v.223l-.117.117-.235.058v-.175h.118v-.118l-.164-.047c.226-.28.34-.492.34-.632-.087 0-.22.152-.4.457l.06.058h-.06l-.175-.117h-.058l-.106.117c0 .11.074.164.223.164l-.059.176.059.281-.059-.058h-.058v.058c.117 0 .195.133.234.399h-.117v.058l-1.02-.222.047-.293-.34-.106-.117.106c0-.149-.055-.223-.164-.223h-.059c0 .149-.074.223-.222.223-.688-.211-1.504-.797-2.45-1.758l.047-.234-.047-.059h-.058l-.117.117-.856-1.195.059-.176h-.059c-.14 0-.386-.512-.738-1.535 0-.344.133-.516.398-.516l-.058-.28c.078 0 .117.058.117.175l.059-.059h.047l.058.059v-.176h.176l.117.117-.176.164.059.059v.117l-.059-.058h-.058l-.059.398.293.059v-.06c.234 0 .422.114.563.34l-.059.06.059.058h.117l-.117-.34h.058l.176.059v-.059l.164.117.059-.058h.117v.117l.117-.117v-.059l-.059-.058v-.06l.059-.058-.059-.058h-.058c0 .156-.059.234-.176.234h-.059c-.172-.187-.304-.281-.398-.281l-.105.105h-.235c-.078-.015-.152-.109-.223-.28 0-.188.094-.34.282-.458l.058.059v-.059l.223.117.059-.058v-.059l-.059-.059.117-.222-.058-.059.058-.058h-.117l-.047.058h-.059l-.175-.058v.058l-.117.117v-.058l-.34.117h-.516v.105h-.281c-.149 0-.223-.285-.223-.855l.281.176h.176v-.117l-.058-.282.164-.175h-.059l-.223.175-.117-.234.059-.047-.223-.117c.024.226.059.34.106.34l-.047.175c-.117 0-.176-.417-.176-1.253 0-.914.059-1.371.176-1.371l-.059-.06v-.058c.102-1.164.594-2.453 1.477-3.867 1.656-1.976 3.668-2.965 6.035-2.965zm.797 0c1.75 0 3.441.664 5.074 1.992 1.016 1.07 1.605 1.965 1.77 2.684l-.118.164v.117l.117.118v-.352c.102 0 .215.324.34.973h-.117v-.164c-.078 0-.117.113-.117.34-.07 0-.105.093-.105.28l-.06.06h-.796l-.398-.34h-.059l.059.058v.281l-.282.117h-.293v-.117h-.117v.164l.176.235h-.059l-.058-.059h-.059v.281l-.738-.222v.117c0 .11.23.164.691.164 0 .062.114.14.34.234l.164-.058.059.058v-.058l.058.058h.059l.223-.058.234.058.117-.175c-.117 0-.176-.094-.176-.282l-.222.059-.176-.059v-.117c0-.21.094-.344.281-.398l.117.28-.058.06v.117h.058c0-.102.133-.18.399-.235l.059.059v.176c-.102 0-.16.093-.176.28h.117v-.116c.117 0 .176-.074.176-.223l.047-.059v-.058h-.106v-.059h.105l.06.059h.058l.574-.281.117.175-.059.165c.11 0 .165.21.165.632l-.164.282-.06-.059h-.116c0 .102-.094.16-.282.176l-.058.058v.106l.398-.164-.058.058v.106h.281l.117.117-.058.059v.058l.117.106-.059.058.059.293-.059.34c-.078 0-.117-.078-.117-.234h-.223v.234l-.058.281-.223-.058-.176.058.059.176.223-.117v.117h.175l.059-.059h.059v.06l-.06.163h.282c0 1.516-.644 3.149-1.933 4.899-1.68 1.71-3.559 2.566-5.637 2.566v-.117c.11 0 .164-.035.164-.106h-.223v-.797h.106v-.351h.175l.176.117h.047l.235-.117-.34-.457v-.223c0-.406.152-.633.457-.68l-.059-.058.059-.059v-.222l-.293.047v-.165l.515-.117v.059l-.058.058v.06h.117c0-.157.305-.388.914-.692.453-.375.68-.621.68-.739h.398v-.058l-.058-.059v-.047l-.059.047h-.105v-.047c0-.062.167-.195.503-.398v-.176l-.046-.281.046-.059h.118l.058.059.059-.059h.058c.11 0 .164.055.164.164h.06v-.222h-.282c-.078 0-.117-.059-.117-.176l.058-.399h.059l.164.118h.059l-.06-.059c.024-.187.083-.281.177-.281v-.117c-.149 0-.223-.04-.223-.118v-.34l.047-.058v-.047l.059.047h.117c0-.07.058-.105.175-.105l.047-.293h-.105v.117l-.117.117h-.176v-.059c.023-.422.062-.633.117-.633h.117v-.046l-.175-.293v-.282h.117v-.058l.058.058h.059c.11 0 .164-.058.164-.175h.059v.117h.574l.222-.059.692.176c.164-.188.312-.281.445-.281l.117.105h.059v-.058c-.117 0-.176-.036-.176-.106h.059l-.164-.234c-.04.101-.25.199-.633.293l-.106-.117h-.117l-.058.058h-.059l-.059-.058V14.5l.118-.34-.34.117h-.176l-.059-.058-.058.058h-.047c-.055-.078-.285-.117-.691-.117l-.165-.738c.07 0 .106-.078.106-.235l.293-.058-.633-.563.059-.058v-.059l-.68-1.136a4.352 4.352 0 00-2.168-1.43c-.453-.055-.68-.13-.68-.223V6.812l.106-.117zM57.84 8.57v.059c.07 0 .105.059.105.176h.117V8.57h-.222zm-9.633 1.032v.164c.164-.086.258-.18.281-.282h-.047l-.234.118zm11.906 2.168c0 .109-.093.164-.281.164v.058h.223l.34-.117v-.105h-.106l-.059.046h-.058l-.059-.046zm-13.5.34v.117h.176v-.118h-.176zm2.625 1.136c0 .078-.058.117-.175.117v.106h.058l.223-.223h-.106zm-1.148.117v.106h.176v-.106h-.176zm11.11.106v.058l-.106.118v-.06l.105-.116zm-.223.398v.176h.058l.059-.176h-.117zm-12.364.059v.117l.117.117.06-.058v-.176h-.177zm.516.234v.117h.164v-.058l-.164-.059zm12.867.164l.059.059v.058l.058-.058h.235c.07 0 .105.078.105.234l.059.059h.058l.059-.059-.059-.34h-.28l-.294.047zm-13.781.059v.117l.176.059V14.5l-.176-.117zm11.39-.059l.399.117-.059.059v.117l.059.059v.047l-.059.058c-.265 0-.398-.133-.398-.398l.059-.059zM47.47 14.5v.059l.058.164c-.125.093-.297.152-.515.175 0-.093-.075-.152-.223-.175l-.059.058v.059c.305 0 .458.191.458.574h-.06c-.077 0-.116.055-.116.164-.305.133-.457.23-.457.293h.058c.344-.078.516-.195.516-.351l.34-.047v.046l.058-.046h.117l-.058.046v.06l.059.058.046-.059h.059l.117.117-.058.059h.28v-.059l-.046-.175h.105v.117h.176l-.058-.059v-.105h.058l.223.164.176-.059-.059-.058v-.047l.059-.293h-.34v-.106h-.059v.106c-.265-.055-.398-.149-.398-.282v-.058l-.059.058h-.058a.693.693 0 01-.282-.398h-.058zm13.277.223l-.059.293.165.058.175-.058.059.058v.047l.164-.047v-.234h-.047c0 .117-.039.176-.117.176-.156 0-.234-.098-.234-.293h-.106zm-14.355.398v.176l.164-.059v-.117l-.059.059h-.059l-.046-.059zm11.672.293c0 .11-.04.164-.118.164l-.047-.058h-.058v.058c0 .094.207.172.62.235 0 .109.04.164.118.164l.059-.059v-.047c-.117 0-.176-.078-.176-.234l-.059.058h-.058c-.102 0-.157-.093-.164-.28h-.117zm-11.731.457v.106h.223l-.117-.106h-.106zm.738 0l-.058.223c.078 0 .117-.059.117-.176v-.047h-.059zm12.82.047v.059h.282l-.117-.106-.164.047zm-1.03.117l-.06-.058h-.058l-.047.058v.117l.047-.058h.176l.176.117v-.293h-.059l-.176.117zm-12.012.235v.058l.164-.176h-.059l-.105.117zm11.894-.06v.06l.059.164-.059.058h.176v-.058l-.117-.223h-.059zm.574.165l.059.176h.176v-.117l-.235-.059zm1.594 0l-.058.176h.175v-.176h-.117zm-12.129.234l.059.059v.059l.281-.059v-.117h-.059l-.28.058zm-.34.118l.047.164.235-.223h-.117l-.165.059zm-.75.222l-.164-.058h-.058v.058l.398.223h.059l-.059-.281.117-.118h-.058l-.235.176zm10.09-.058v.058l.059.176h.164l-.106-.234h-.117zm-9.293.34c0 .117-.035.175-.105.175l-.235-.058v.058l-.058-.058h-.047l-.234.34.058.234h.059c0-.156.093-.274.281-.352h.176v.059h-.117l.175.293h.282l.058-.059h.059l.222.223h.06c-.235-.375-.407-.563-.517-.563v-.293h-.117zm9.633.117l-.059.222h.176l.223-.105-.059-.059v-.058l-.058.058h-.106l-.058-.058h-.059zm-12.422.117h.059l.234.058v.047l-.176.176h-.058l-.059-.281zm1.77.105l-.059.176.059.176h.058l.059-.176.164.059v-.176l-.281-.059zm-1.313.575l-.058.058v.059l.574.34v-.118a.422.422 0 00-.176-.34l-.059.06h-.046l-.235-.06zm11.625 0l.117.117h.047l-.105-.117h-.059zm-8.261.28v.06h.175v-.106l-.175.047zm7.863.458l.058.176h.059l.105-.118v-.117l-.105-.105c-.078 0-.117.054-.117.164zm1.078-.059l.059.059-.06.058h.177l-.059-.222-.117.105zm-8.426 0v.117l.106.118.117-.118-.164-.117h-.059zm-2.285.352l.234.047.106-.164h-.223l-.117.117zm9.973-.059v.059l.058.047h.164v-.047l-.222-.059zm-.68.223l.059.176h.046l.118-.118v-.117l-.118-.105c-.07 0-.105.055-.105.164zm-7.3.117l.058.059v.058l-.059.164.059.059h.117c0-.195-.059-.309-.176-.34zm.456.281l-.281.282.516-.165v-.058l-.235-.059zm-2.215.117l.059.223h.105l.118-.105v-.117l-.059.058-.059-.059h-.164zm-.914.34v.176h.059l.164-.058-.105-.118h-.118zm2.11 0v.235h.058l.059-.235h-.117zm2.566 0l.047.059v.058h-.105v.118l.164-.117.058.058v-.058l-.117-.118h-.047zm-4.336.117v.165l.059.058h.058v-.058l-.058-.165h-.059zm2.625.06v.222c0 .187.094.32.281.398h.118v-.223l-.399-.398zm-2.226.398l.117.105.058-.047v.047l.164-.047-.058-.176h-.164l-.117.117zm.797.105l.117.117h.117l.058-.223h-.058l-.235.106zm5.238-.047h.117l-.059.281h-.058l-.106-.117v-.058l.106-.106zm-5.461.34h.058l.106-.117v-.059l-.164.176zm.562-.176v.176h.117v-.176h-.117zm.176.235l.059.046-.059.059v.059l.117.117.164-.059v.117h.059c0-.078.078-.117.234-.117l.106-.117v-.105l-.164.105-.34-.105h-.176zm5.473.105v.059l.164.058v-.117h-.164zm-.856.176h.106v.457l-.106.105v-.562zm-5.015.281v.059c.078.187.21.28.398.28h.281v-.058l-.28-.047-.177.047.059-.047v-.117l-.281-.117zm1.078.059l-.106.175h.106l.058-.175h-.058zm6.093.175v.047h.118l.058-.164h-.058l-.117.117zm-5.18.165v.058l.06.059h.175v-.059l-.234-.058zm.634 0l.105.293h.234v-.118c-.078 0-.117-.058-.117-.175h-.222zm-1.828.117l-.06.175h.06l.222-.117v-.058h-.105l-.059-.059-.059.059zm1.535.175l-.059.047v.059h.117l-.058.059v.058h.234v-.176l-.234-.047zm1.992-.058h.059v.457l-.06.047v.058l-.163-.058c.047-.336.101-.504.164-.504zm1.547.223l-.059.058v.117l.164.059v-.117l-.105-.117zm-1.887.34c.227 0 .34.097.34.292l.059.164h-.06l-.456.059v-.059l-.164-.222-.059.058h-.058v-.117l.398-.176zM65.035 6.59l.059.058h.656l.117.118v6.75l-.058.234.058.176h-.058l.058.058v1.97l-.058.07.058.058v7.277l-.117.118h-.363V23.3h-.118c0 .117-.038.176-.117.176h-1.91V23.3h-.117v.176h-.96l-.118-.118V6.766l.117-.118h2.813l.058-.058zm1.547.058h3.223c2.39.125 3.586.465 3.586 1.02h.293c1.117.805 1.675 2.016 1.675 3.633 0 1.789-.68 3.043-2.039 3.761l-.117-.117c0 .196-.238.336-.715.422v.059c.688 0 1.325.613 1.91 1.84l-.058.07h-.234l-.06-.07h-.07l-.058.246h.059l.363-.059c.156 0 .277.438.363 1.313h-.129l-.293-.059-.234.293c.11 0 .207.082.293.246v.117l-.059.059v.058h.422v-.117h.117l.352 1.852c-.234.078-.352.156-.352.234v.059h.293c.118 0 .239.277.364.832l-.188.187v.176l.188-.117h.058c.094.039.254.258.48.656l-.246.235h-.949l.118-.48v-.177c-.118 0-.196.22-.235.657h-1.02l-.117-.118.059-.058h.117l.305.058v-.175l-.07-.247.187-.234.293.059.246-.059v-.305c-.601.133-.902.254-.902.364l.058.363-.058.059h-.54c0 .195-.038.293-.117.293h-.949c-.132 0-.37-.477-.714-1.43l.058-.176c-.11 0-.328-1.055-.656-3.164-.14-.5-.461-.898-.961-1.195-.469-.164-1.106-.246-1.91-.246v-.176h.117v-.117h-.117c0 .078-.078.117-.235.117v.176l-1.02.07h-.175l-.117-.129v-1.125c0-.086.097-.129.293-.129v-.117h-.059l-.176.059-.058-.06v-1.487l.117-.118h1.488c2.352 0 3.528-.695 3.528-2.085v-.48c-.141-1.157-.7-1.735-1.676-1.735 0-.07-.496-.11-1.488-.117h-1.852l-.117-.118v-2.93l.117-.117zm6.68 3.645h.058l.13-.117h-.06l-.128.117zm-7.758 1.43v.117h.187v-.117h-.187zm6.867 1.195l-.058.176.058.176h.059l.058-.352h-.117zm-6.808.48c0 .157-.079.235-.235.235v.058h.059c.18-.078.281-.156.304-.234v-.059h-.129zm5.671.235l.247.234h.234l.117-.117h-.48v-.117h-.118zm-6.14.117l.117.117h.058v-.117h-.175zm5.191.48l.117.176-.058.059h-.059l-.058-.059c-.204 0-.465.102-.786.305h-.175l.058.059v.058l-.117.352h.176c.242-.086.363-.242.363-.47l.176-.128h.246c.117 0 .176.082.176.246h.117l.176-.305c-.078 0-.118-.078-.118-.234l-.058-.059h-.176zm-2.273.118l-.059.234h.176v-.234h-.117zm3.937 0v.48h.117v-.48h-.117zm-4.535.117v.117l.117.129-.058.059v.175h.246l-.059-.058v-.059l.176-.246-.363-.117h-.059zm3.82.832l-.117.246.598.234v-.117c-.078 0-.117-.078-.117-.234l-.246-.13h-.118zm-2.32.305l.059.175h.117l.117-.117v-.058l-.293-.059v.059zm-4.535.175c0 .149-.121.25-.363.305v.059h.304l.118-.305v-.059h-.06zm1.008 0v.118h.246v-.118h-.246zm1.91.118v.058l.363.188h.528v-.118h-.528c-.086 0-.129-.062-.129-.187l-.234.059zm.96.246l.118.117h.352v-.059l-.118-.117-.351.059zm-3.585.234v.117h.234l.07-.234h-.07l-.234.117zm7.101-.117l-.058.058v.118l.234-.118v-.058h-.176zm-1.078.48l.188.89H71v-.175l-.117-.48.117-.176v-.059h-.305zm3.106.352v.058l.176.059v-.117H73.8zm.058.656l-.117.188.235.175.07-.058h.059l.351.234v-.48h-.176l-.304.058-.118-.117zm-1.312.363v.059h.059l.187-.176v-.129l-.246.246zm-1.008-.058l-.058.234v.059h.058l.059-.235v-.058h-.059zm2.438.176v.363c.085 0 .129-.063.129-.188l-.06-.175h-.07zm-1.254.421h.07l.117-.128h-.058l-.13.128zm.668 0v.118l.293-.059v-.059h-.293zM65.328 19l-.059.246h.118l.058-.246h-.117zm8.238.246h.118l.234-.129V19h-.059c-.18.078-.277.16-.293.246zm-1.851-.129l.234.363h.117v-.117c-.117 0-.175-.082-.175-.246h-.176zm-6.563.246c0 .117-.12.176-.363.176v.117l.48-.175v-.118h-.117zm7.758.059v.058l.117.118h.117l.118-.117-.352-.06zm.117.351l-.175-.117-.13.117v.059h.422l.06.07c.241-.086.362-.168.362-.246l-.058-.058h-.059c-.148.117-.289.175-.422.175zm-.96.247v.058h.128v-.176l-.129.117zm-.657.293c.047.242.11.363.188.363l.117-.117v-.07l-.176-.177h-.129zm1.313.117l.07.246h.059l.234-.117v-.13h-.363zm1.02 0v.129h.234v-.13h-.235zm-1.852.246l.117.117h.129v-.117h-.246zm-7.758.351v.059l.187.187h.059v-.246h-.246zm9.375 0c0 .078.136.2.41.364h.129v-.059c0-.063-.14-.164-.422-.305h-.117zm-9.012.246v.118h.176l-.117-.118h-.059zm7.277.235c.258.078.418.199.48.363l.54.176v-.176c-.274 0-.492-.14-.656-.422l-.07-.058h-.176l-.118.117zm2.45.117l.117.117.117-.117h-.234zm-11.637.246v.117h.176v-.117h-.176zm10.734.117c0 .157-.039.235-.117.235l.059.058v.059l-.118.187v.059h.247v-.598h-.07zm1.559 0v.117h.234v-.117h-.234zm-11.227.293v.059c.282-.04.422-.098.422-.176v-.059h-.234l-.188.176zm8.239-.058l.117.117h.058l-.117-.117h-.058zm-9.012.48h.246l-.129-.117-.117.117zm1.852 0l-.06.059v.058h.177l-.117-.117zm-2.086.059v.175l.117-.117v-.058h-.117zm1.195.058l.058.176h.059v-.176h-.117zm.715 0l-.118.117v.188l.176-.246v-.059h-.058zm7.992.235v.129h.059l.304-.059v-.188h-.117l-.246.118zm3.469.785h.293l.117.117-.117.117h-.293l-.13-.117.13-.117zm.21-17.18h3.587l.117.117v1.371l-.118.13h-.117c0-.102-.101-.223-.304-.364v-.117h-.059l-.059.058h-.058l.363.54-.305.234h.059l.54-.293.058.059v7.464h-.293l-.305-.187c0 .164-.078.246-.234.246 0 .234-.04.352-.117.352h-.305l-.176-.118-.117.188.058.058h.352v.118c.188 0 .348.097.48.293l.118-.176c-.118 0-.176-.04-.176-.117v-.364h.363l.117.117v.305c-.125 0-.187.04-.187.117.164 0 .305.102.422.305v.715l-.422.469h.305v-.235h.117v2.625c-.078.164-.176.246-.293.246l.117.118.176-.059v1.664h-.118c0-.195-.039-.293-.117-.293l-.363-.176v.059c0 .062.121.121.363.176l.059.304v.059l-.176.176h-.129l-.351-.305v.07l.293.352-.059.176h.059c.242 0 .363-.078.363-.235h.176v.48l-.118.118h-.363l-.176-.117-.117.117h-.422c-.078 0-.117-.059-.117-.176h-.363c0 .117-.04.176-.117.176h-.293l-.363-.293h-.06v.293h-.714v-.176h-.363v.059h.129v.117h-.246l-.118-.117v-.059l.118-.187v-.293h-.118v-.54l.235-.35c0-.126-.059-.188-.176-.188l-.059-.059v-.422l.118-.117h.246l.175.117h.176l-.058-.058-.293-.118-.13-.351h-.116v.293h-.118v-2.274l.118-.117h.058l.363.117v.07l.293-.07h.48c0-.078-.077-.117-.234-.117v-.117h-.421l-.118-.117.059-.246c-.156 0-.234-.22-.234-.657l-.07.07h-.176l-.118-.128v-.469h.176l-.058-.07v-.059l.058-.176-.176-.293v-9.62l.118-.118zm1.079.176l-.118.187h.06l.175-.07-.117-.117zm.656.539v.117l.058.059h.118v-.059l-.118-.117h-.058zm0 .96v.06l.715.293.058.058h.059l-.059-.293v-.117l.118-.188h-.47l-.421.188zm.89.411l.13.129h.117v-.129h-.246zm-2.449.129v.117l.13.117.058-.058v-.059l-.117-.117h-.07zm3.047 4.71v.54h.13l.058-.176-.13-.363h-.058zm.246 1.43l-.117.305v.059l.234-.059-.058-.304h-.059zm-3.105.364v.293h.117v-.293h-.117zm1.793.293l.117.129c.352-.117.55-.239.598-.364l-.059-.058c-.195.195-.414.293-.656.293zm-1.078 0v.129l.117.117v-.246h-.117zm-1.078.246l.304.234h.176c0-.101-.16-.18-.48-.234zm1.43.117v.235h.187v-.06l-.059-.175h-.129zm2.273-.058v.597h-.118v-.117l-.058-.422.058-.058h.118zm-2.028.89v.059l.598.422v-.235c-.203-.14-.305-.32-.305-.539-.062 0-.12.098-.175.293h-.118zm-1.5.059v.07c.125 0 .246.078.364.235h.058l.176-.176-.176-.305h-.058c-.133.117-.254.176-.364.176zm1.02-.176l-.059.363.176.176v.117l-.293.059h-.176l-.129.305v.058l.13.117h.058l.293-.058.059.293h.058v-.352c.078 0 .117-.078.117-.234l.07-.07h.06l.233.07v-.07c0-.079-.12-.157-.363-.235l-.058-.293v-.07h.129v-.059c-.125 0-.188-.039-.188-.117h-.117zm2.027.363v.117h.364v-.175l-.364.058zm-.656.774l-.176-.059v.235h.176c0-.157.14-.274.422-.352v-.117h-.059l-.363.293zm-2.625-.117c.203.023.305.14.305.351-.164.086-.246.188-.246.305h-.118v-.54l.059-.058v-.058zm2.871.539v.117c.156-.063.234-.121.234-.176l-.234.059zm-1.312.234h.175l.059-.059h.058l-.058-.175-.234.234zm.597 0v.059c0 .062.137.164.41.304v-.129c-.117 0-.175-.058-.175-.175l-.059-.059h-.176zm-.785.539v.059c.164 0 .246.078.246.234h.117c0-.18.098-.336.293-.469-.437.04-.656.098-.656.176zm1.137 0v.059h.246l-.07-.059v-.059l-.176.059zm-1.969 0c0 .156-.039.234-.117.234l-.188-.058-.058.058v.188c.125 0 .187.058.187.176h.059c0-.203.097-.305.293-.305h.187a.623.623 0 00-.363-.293zm2.086.832v.059h.059c.015-.157.175-.235.48-.235v-.234c-.36.117-.539.254-.539.41zm-1.606-.176h.118l.117-.117h-.117l-.118.117zm2.391.117l-.07.247h.187l.059-.247h-.176zm-2.039.598v.117c-.117 0-.176.04-.176.117h.176l.059-.175v-.059h-.059zm-.598.363h.188l.117-.128h-.176l-.129.128zm.657 1.137v.059h.129c0-.086.058-.13.175-.13v-.116l-.304.187zm.656-.187v.058l.129.188v.117c0 .117-.082.176-.246.176v.058h.304l.059-.293c-.078-.187-.16-.289-.246-.304zm-1.125.246v.117h.058l.118-.117h-.176zm.352.597l.117.118h.187v-.118h-.304zm-.54.352l.13.176.175-.059-.058-.234-.247.117zm1.852 0v.117h.188v-.117h-.188zm1.137-6.984v.597h-.118v-.117l-.058-.422.058-.058h.118zm-3.762 1.793c.203.023.305.14.305.351-.164.086-.246.188-.246.305h-.118v-.54l.059-.058v-.058zm11.59-11.58h.305l-.422.305v-.07l.117-.235zm-6.89.422h1.558l.058.059.059-.059h1.5v.059l-.117.176v.058h.058l.176-.117h.13c.077 0 .116.102.116.305l.176.058v8.028h-.059l-.058-.07h-.059l-.058.07v.058l.234.235v.539h-.117l.058-.059v-.058h-.175a.908.908 0 01-.305.714h-.293v.305c.117 0 .176.098.176.293h.117c.063 0 .144-.16.246-.48l.293-.059v6.715l-.117.117h-.117l-.246-.176h-.059c0 .117-.04.176-.117.176h-.246c-.078 0-.118-.059-.118-.176h-.351c0 .117-.242.176-.727.176h-.293l-.246-.059-.234.059h-.785l-.176-.176v-.129c.242-.672.441-1.008.598-1.008v-.07L81.23 22v.188l-.305-.07v.187l-.059.293h-.117v-5.989c0-.078.18-.117.54-.117l.116-.176-.117-.187v-.352l.117-.187v-.176h-.058c0 .102-.098.18-.293.234l.058.07-.129.598h-.117l-.117-.128v-3.293h.305v-.118l-.13-.117-.175.059V8.23l.117-.117h.117l.188.117v-.058l-.117-.188v-.117l.058-.058V7.75h-.363V6.73l.117-.117zm4.429 0h2.578c2.258 0 3.894.617 4.91 1.852l.059-.059v.059l-.059.058c.719 1.094 1.078 2.235 1.078 3.422v6.059c0 1.367-.36 2.484-1.078 3.351h-.117v.06l.059.187-.422.351h-.059v-.117h-.117l-.059.176.059.187c-.828.875-2.645 1.313-5.45 1.313h-1.382l-.117-.117v-1.5l.117-.176-.117-.117v-1.137l.117-.13h2.285c.203 0 .383.063.54.188h.175v-.058l-.059-.188c1.196-.39 1.793-1.187 1.793-2.39v-6.13c-.265-1.312-.984-1.968-2.156-1.968 0-.086-.117-.129-.352-.129l-.609.07-.058-.07v-.058l-.41.187-.305-.059v-.07l.058-.058v-.059h-.117l-.246.187h-.54l-.116-.128V6.73l.117-.117zm-3.774.422h.13l.116-.129V6.79h-.058l-.188.246zm-.351.656l.539.059.058-.059v-.187h-.421l-.176.187zm11.437-.117h.118c0 .078.058.117.175.117v.176h-.117c-.078 0-.117-.058-.117-.176h-.059v.118h-.175l.175-.235zM81.29 8.945l.059.059v.059l-.059.058v.07l.305.118h.058V9.25l-.129-.305h-.234zm-.363.246l.058.293.13-.117v-.176h-.188zm5.695.118l.117.117.059-.059V9.31h-.176zm-4.617.234l.058.059-.058.058v.188l.305-.059h.175V9.73l-.175-.187h-.059l-.059.059-.058-.059h-.13zm4.676.246v.176h-.118v-.059l.118-.117zm-4.91.234v.364l.058-.059h.059l.058.059v.293l-.117.129h-.117c0-.125-.102-.188-.305-.188h-.234v.117c.32 0 .597.242.832.727h.305v-.059c-.196 0-.336-.101-.422-.304 0-.243.14-.364.422-.364l-.118-.351c-.164 0-.246-.14-.246-.422l-.175.058zm8.566.364l.058.351h.118l-.059-.058v-.059l.117-.234h-.234zm-7.793.234v.059l.059.058-.059.07v.118l.188-.059v-.129l-.13-.117h-.058zm8.988.246l.117.117.059-.058v-.059h-.176zm-9.644.95v.07l.175.293h.305l-.422-.364h-.058zm2.46.363v.117h.176l-.117-.117h-.058zm7.723 5.824v.117h.364v.129h.058v-.129l-.187-.117h-.235zm-5.695 2.871l.48.188.06-.06v-.07c-.056 0-.114-.078-.177-.234l-.058-.058h-.118c-.062 0-.124.078-.187.234zm-1.078.129v.058h.363c0 .243.18.422.54.54l.058-.059v-.07c-.235 0-.352-.137-.352-.41l.117-.13-.187-.175-.176.058v-.058c-.242.094-.363.176-.363.246zM83.68 15.18l.07.058v.176c0 .078-.063.117-.188.117l-.058.059v.058h.305v-.468h-.13zm4.078 5.824v.117l.117.235.246-.06-.129-.292h-.234zm-4.735-5.766l-.058.059v.176l.058-.059.305.059.176-.176-.48-.059zm-.292.41v.54l.117.187c.242-.055.363-.117.363-.188v-.058l-.305.058-.117-.175v-.059l.059-.305h-.117zm4.007 6.07v.177h.118v-.176h-.118zm.305.235v.059h.293v-.059h-.293zm-.129.188v.175l.129-.117v-.058h-.129zm-3.586-5.649v.117l.234.246h.06v-.058h-.118v-.07l.176-.235h-.352zm-1.863.422v.059h.058l.13-.117v-.06h-.06l-.128.118zm.304.422v.059c.079.093.118.23.118.41l.058-.059h.059l.246.188v-.188l-.305-.41h-.175zm0 .598v.175h.118v-.058l-.118-.117zm1.735.293v.187l.117.117h.059v-.187l-.118-.117h-.058zm-1.195.058v.13h.363v-.13h-.363zm1.02.246l-.118.293v.13c.156-.087.234-.208.234-.364l-.058-.059h-.059zm-1.5.293h.058c.164-.055.246-.113.246-.176h-.13l-.175.176zm0 .13l-.177.41.176.128.48-.129v-.058c-.28-.102-.421-.22-.421-.352h-.059zm1.077.175l-.058.058v.06h.175l-.117-.118zm.844.363h-.48c0 .078.199.156.597.235h.059l.117-.118v-.187l-.293.07zM82.73 20.5v.188l.118.117h.058l.117-.117c-.156 0-.234-.063-.234-.188h-.058zm1.313.422v.187l.176.059.07-.059v-.07l-.187-.117h-.059zm-.234.422c0 .242-.063.363-.188.363l-.352-.059c0 .118-.042.176-.128.176v.059l.304.117c.203-.078.305-.156.305-.234h.059l.058.058h.059c.008-.164.047-.246.117-.246a.324.324 0 00-.234-.234zm-2.52.422v.058h.234v-.176h-.117l-.117.118zm.902.715c.274.101.41.222.41.363h.07c.196-.164.352-.246.47-.246l-.118-.117h-.539l-.175-.118-.118.117zm1.618.117v.363h.058l.117-.234-.058-.247-.117.118zm.234.129v.058l.117-.129v-.058l-.117.129zm-2.52.351l.07.188c.18-.078.278-.16.294-.246v-.06h-.235l-.129.118zM95.54 6.695v.176h.059c0-.094.082-.152.246-.176l.117.176v.117c-.117 0-.176.063-.176.188l-.246.117-.234-.059c-.078.18-.157.278-.235.293l-.058-.058h-.07l-.176.234.363.07v.41c-.164 0-.246.06-.246.176h-.235v-.656l.059-.527-.059-.422.059-.059h.832zm.773 0h2.028l.117.117v1.606h-.117c0-.234-.04-.352-.117-.352l-.117.118V8.3c0 .078.117.16.351.246v1.84l-.41-.059h-.059v.059l.469.187v.715h-.176v.117c.117 0 .176.04.176.117v2.86c-.156 0-.234.14-.234.422l.058.058-.175.117h-.176c-.078 0-.118-.101-.118-.304h-.07c0 .203-.058.304-.176.304h-.293l-.117-.117v-.246c.117 0 .176-.039.176-.117l-.059-.293-.058.059h-.059l.059.058v.176l-.13.117h-.175c-.195-.07-.293-.246-.293-.527v-.07l.176-.06-.117-.35c.156 0 .234-.102.234-.305h.48v-.235h.352l.07-.058h.06c0-.117-.083-.176-.247-.176l-.059-.363-.058.058h-.059l.059.059v.129l-.176.176-.246.058v.176l-.059-.059h-.117l-.117.364-.234-.13v.13h-.598v-.246l.058-.293c-.117 0-.175-.04-.175-.118v-.246l.175-.058c.07.28.231.421.481.421v-.058c-.203-.117-.305-.258-.305-.422l.118-.117.058.058h.305v-.351c0-.086.058-.129.176-.129v-.117c-.235 0-.352-.117-.352-.352l-.059.059h-.07l-.527-.117-.059.058v-.117c.117 0 .176-.043.176-.129v-.176h-.117v.118l-.305-.059h-.117v.059h.117v.117l-.234.07v-.305h.175v-.234l-.058-.059v-.058a.37.37 0 00.234-.363h.188l.175.175-.117.13.117.35h.118v-.234h.058l.118.118-.06.058v.059h.118l.363-.117v-.118c-.226 0-.484-.14-.773-.421v-.48h-.117c0 .093-.082.214-.246.362l-.059-.058h-.293l.117.41c0 .125-.16.285-.48.48v.059h-.235v-.469l.118-.422h-.118v-.234h.118v.176c.296 0 .457-.078.48-.235v-.07h-.058v.129c-.32-.04-.481-.18-.481-.422l.234-.176h.364l-.059.293v.117h.059c.007-.156.047-.234.117-.234l-.117-.539.117-.117V8.78c-.117 0-.176-.039-.176-.117l-.058.059h-.06l-.187-.176v-.059c.203 0 .305-.082.305-.246l-.058-.058.058-.059.059.059h.175l.305-.059.059.363h.058c.133-.125.25-.187.352-.187v-.117l-.235-.059.176-.54c-.101 0-.18-.116-.234-.35l.117-.176.293.117.07-.059-.129-.363v-.059zm2.93 0h1.43l.117.117-.117.118v.187h.058c.118 0 .176-.14.176-.422h1.008l.059.059.07-.059h.773c.024.196.082.293.176.293l.059-.058h.058l-.058-.059v-.176h1.488v.176l.059-.059.058.06h.117v-.06l-.058-.058v-.059h2.144l.129.117v2.86l-.129.117h-1.547v-.176c-.078 0-.117.059-.117.176h-3.398l-.176-.117-.176.117h-2.203l-.129-.117v-.469l.059-.07-.059-.059v-1.84h.13V7.06h-.13v-.247l.13-.117zm-2.086.422l-.129.235h.13l.116-.118-.117-.117zm.774.117c.078.313.156.47.234.47l.176-.177c-.078 0-.117-.097-.117-.293l-.059-.058h-.058l-.176.058zm1.722.235l.176.117.059-.176-.059-.058h-.059l-.117.117zm-2.918.234h.059l.176-.176h-.059l-.176.176zm7.864-.176c0 .164-.118.246-.352.246l-.058-.07-.059.246h.351l.176-.363v-.059h-.058zm-2.918.176l-.059.246h.117l.117-.117-.175-.129zm-4.465.129v.293h-.059l-.129-.117.059-.059h-.176v.352h-.117v.117h.117c0-.14.18-.219.54-.234.093-.157.19-.235.292-.235v-.117h-.527zm3.152.117v.235l.117-.118V7.95h-.117zm3.516.293h.176v-.176l-.176.176zm-4.29.117l-.058.059v.07l.059.059h.058l.059-.059.176.235v.351h.07l.176-.058v-.059a1.218 1.218 0 00-.54-.598zm-2.976.305v.059h.117l.059-.176h-.059l-.117.117zm-.96.117v.117h.07l.292-.058v-.176l-.363.117zm1.85 0l.06.293h-.118v.188h.059l.539-.246h.059v-.059l-.293-.059h-.188v-.117h-.117zm-1.429.059v.176h.117V8.84h-.117zm.598.234v.059h.117l.117-.117-.058-.059h-.059l-.117.117zm4.886-.058v.117h.118l.117-.117h-.235zm-1.793.117v.129h.118l.129-.13h-.247zm3.223 0l-.117.363h.059l.175-.176v-.187h-.117zm-6.433.187v.176h.117V9.32h-.117zm3.632.059v.234h.059l.059-.175-.059-.06h-.059zm3.633.117v.117l.117.117v-.234h-.117zm-6.258.48h-.351l-.13-.117-.175.059v.234l.305.059.058-.059.598.176v-.058c0-.079-.062-.118-.187-.118v-.058l.246-.235h.351l.059-.187-.059-.059h-.117l-.598.364zm-.48.833l-.059.058v.059l.188.176.058-.059h.118c.195 0 .293.082.293.246h.187v-.07c-.164-.172-.426-.309-.785-.41zm.844.48h.234l-.117-.129-.117.13zm-3.282-.07h.118l.058.304-.058.41-.118-.117v-.597zm2.625.07v.117c.079 0 .118.078.118.235h.117l-.176-.293v-.059h-.059zm-2.027.117c.086 0 .203.2.352.598h.058l.07-.305c-.124 0-.187-.039-.187-.117l.305-.059.293.176h.058v.176l-.117.129h-.293c0 .18-.062.316-.187.41h.058l-.058.059v.058l.129.364-.188.117-.176-.176h-.058l-.118.117c0 .305.137.485.41.54v.058l.06-.059h.07l.117.117v.41c-.203 0-.305.043-.305.13v.058c.07.156.211.234.422.234 0-.234.039-.351.117-.351v.058l.176-.058v-.07c0-.079-.059-.118-.176-.118l-.059-.058v-.176l.118-.176c.32 0 .48.137.48.41-.078 0-.117.102-.117.305h-.129v.176c.523.367.785.586.785.656 0 .078.098.117.293.117l.059.059v.305l-.059.293h.059l.305-.118.058.059v-.117c0-.078-.082-.117-.246-.117 0-.086.102-.13.305-.13v-.058l.351.129v-.07l.059-.235h.117v1.371l-.059.422.059.528v3.937c0 .14-.078.3-.234.48v.118l.058-.059h.176v.059l-.059.058.059.293v.774l-.351.363h-.293l-.188-.117.059-.059v-.187l-.352.129v.117h-.363v-.246l.246-.117h.058v-.06l-.117-.116h-.07c0 .101-.117.222-.352.363l-.363-.07c.047-.274.11-.41.188-.41h.293c0-.118.101-.176.304-.176l.235-.363v-.06h-.235v-.35h.235l.351.292h.13v-.058c-.204 0-.306-.121-.306-.364v-.058c.165 0 .286-.098.364-.293h.058v.117h.118v-.176l-.118-.48h-.117l-.187.363.129.117-.657.469-.187-.059v.059c0 .18-.156.3-.469.363-.086-.18-.207-.277-.363-.293v-.187l.117-.117h.058l.305.058-.058-.058v-.059l.117-.352h-.305l.07.06v.116h-.187l-.117-.246v-.058h-.059c0 .28-.039.421-.117.421h-.117l-.188-.058v.058l-.117.352-.058-.059h-.06l-.116.13c.28 0 .422.078.422.234l.058.293-.48.058.058.059v.422c.243 0 .364.039.364.117v.363h-.364c-.07 0-.129-.12-.175-.363-.282 0-.422-.04-.422-.117v-.422h.117v-.059c-.156 0-.235-.039-.235-.117V21.18l.422-.364h-.422v-.058l.118-.176v-.176l-.118-.187v-3.516c0-.078.059-.117.176-.117v-.059c-.117 0-.176-.039-.176-.117v-1.312l.118-.118h.058l.059.06h.058v-.06l-.293-.304v-2.32h.118l.117.117h-.059l.059.187h.129v-.305c0-.078.117-.117.351-.117v-.058l-.422-.117v-.13l.07-.058v-.059l-.07-.058a.57.57 0 00.305-.352zm2.262.293v.176h.117l-.059-.176h-.058zm.117.305c0 .203-.059.32-.176.351l-.234-.058-.422.058v.176l.832-.176.117-.117v-.117l-.117-.117zm1.547 1.066c.25 0 .43.18.539.54l-.059.058h.117l.06-.059.058.059h.07l.176-.176-.305-.305v-.117h.059l.07.059h.059l.058-.059.293.059h.481l.293-.059v.059l.058-.059h.188l.175.059.293-.059h1.02l.469.117.129-.117h.058l.059.059.058-.059h2.379l.118.117v.06h-.059l-.293-.06-.059.06v.058l.481.129.058-.188h.118v1.078c-.289-.039-.508-.14-.657-.304h-.363v-.118h-.351c0-.156-.082-.234-.247-.234v.059c.094.359.196.539.305.539.117 0 .176.058.176.175l.058.059h.059c0-.156.063-.234.188-.234l.175-.118.352.235h.129l.058-.059h.059l.059.41v.786l-.059.058.059.059v.058l-.059.41-.422-.058-.117.129h-.117v-.07l-.422.07h-.715l-.059-.07-.058.07H104l-.059-.07-.058.07h-.352l-.246-.07-.234.07h-.422l-.117-.13-.469.13h-1.559c-.078 0-.156-.121-.234-.363h-.059l-.117.175-.187-.058v.058c0 .125-.098.188-.293.188h-.352v-.13h.293v-.058l-.058-.058.058-.176h.059l.058.059h.059l.058-.06v-.292c0-.086-.058-.129-.175-.129l-.059.059h-.058l-.176-.059.058.059-.058.07v.059l.058.175-.117.293h-.129v-.715l.059-.058-.059-.059v-1.254h.059c.086 0 .148.16.187.48h.059c0-.241.039-.402.117-.48v-.058l-.363-.352v-.187l.07-.059-.07-.059v-.117zm-4.23.117l-.06.188.06.059h.07l.117-.188-.059-.059h-.129zm6.14.118v.07l.176-.07v-.117h-.059l-.117.117zm.246-.059v.129h.059l.175-.07v-.117h-.058l-.176.058zm-3.34.188l.118.117h.117v-.059l-.059-.187h-.058l-.118.129zm5.719 0c.117 0 .258.078.422.234 0-.117.059-.176.176-.176 0 .063.136.16.41.293v-.117c-.188 0-.363-.121-.527-.363h-.364l-.117.129zm-6.258.117v.058l.059.176h.234v-.117l-.234-.117h-.059zm3.809.117v.176h.129v-.059l-.129-.117zm-1.125.117c0 .219.097.38.293.48l.304-.421v-.059h-.058c0 .078-.082.117-.246.117v.118h-.059v-.118l-.117-.117h-.117zm-5.004.235l-.059.07v.176l.176-.176-.058-.07h-.06zm7.863 0v.128h.293v-.128l-.058.07h-.059l-.176-.07zm-1.91.128v.059l.059.176h.058l.129-.117-.246-.118zm3.106.118l.058.234h.117l.117-.117-.117-.117h-.175zm-4.36.117v.117h.129c0 .078.059.117.176.117v.422h.117l.059-.305c-.227-.234-.387-.351-.48-.351zm4.418.234v.246h.059v-.246h-.059zm1.125.117l.059.305.187-.176-.129-.129h-.117zm-4.523.13l.117.175-.293.117c0 .063.078.121.234.176 0-.063.098-.121.293-.176l.059.059-.059-.235-.058.06h-.118v-.177h-.175zm2.496.116v.235l.187.058.117-.351-.304.058zm-7.863.48h.175v.06l-.293.058v.117h.118v.235l.058.304-.352.118v-.059l-.304.059v.058l.058.059v.058l.598-.117v.117h.117v-.422h.305l-.059-.234.059-.176h.41l.188.176-.059.059v.117l.117.129v-.188h.117l.235.246v.059l-.059.059.059.058v.059l-.059.293h.117l.059-.469.07.059h.117v-.059c-.078 0-.117-.102-.117-.305-.203-.023-.304-.082-.304-.175l.234-.481h-.176v.129h-.176l-.058-.07h-.059l.059-.293v-.059h-.117l-.059.352-.059-.059h-.07l-.058.188h-.41v.234h-.247v-.117h.13v-.059l-.06-.187h.06c.093 0 .171-.137.233-.41h-.234l-.304.48zm4.288-.245v.058h.06l.304-.058v-.117h-.059l-.305.117zm4.29-.059v.117l.187.422h.059v-.363c-.078 0-.117-.059-.117-.176h-.129zm-1.547.598v.176h.058l.188-.059v-.059l-.246-.058zm1.676 0c0 .117-.043.176-.129.176v.117l.246-.117v-.176h-.117zm-8.169.48c0 .196-.038.293-.117.293l-.175-.058c.078.093.117.234.117.422h.117c.07 0 .129-.102.176-.305l-.059-.059.234-.117v.117h.06v-.234l-.353-.059zm1.852.059v.234c.055 0 .113-.078.176-.234h-.176zm-.305.352v.058l.118.117v-.175h-.118zm-2.554.246v.117l.175.058.06-.058v-.305h-.06l-.175.188zm2.144.351v.176h.059l.176-.059v-.117h-.235zm.586.176v.059l.07.421h.176c0-.195.098-.293.293-.293-.023-.156-.14-.277-.351-.363l-.188.176zm-2.496.188v.117l.176.175.305-.117v-.058l-.13-.117-.292.058-.059-.059zm1.488.117v.117h.235l.187-.176v-.059h-.07l-.352.118zm.95.293l-.059.246h.117v-.246h-.058zm-2.555.304l-.059.059v.058h.059v-.058l.058.058h.118v-.058l-.176-.059zm.234.117v.06l.176.175v-.059l-.176-.175zm1.723 0v.118l.363.058v.059c0 .133-.058.273-.176.422v.058h.118c.078 0 .117-.082.117-.246l.363-.058v-.293l-.785-.117zm-1.184.293v.06h.235v-.118h-.059l-.176.058zm-.96.305v.117h.128l-.058.059v.059l.058.175h-.058l-.188.059v.058h.188c.14-.273.398-.41.773-.41v-.117l-.539.117-.117-.117h-.188zm3.164 0l-.06.059v.175c.118 0 .177.079.177.235h.175c-.156-.18-.234-.317-.234-.41h.117v-.059h-.175zm-2.86 1.008v.234l.293-.351-.058-.059-.235.176zm2.684.117c0 .203-.102.305-.305.305v.058l.48.059v-.363l-.175-.059zm2.086.176h.351l.246.187c0-.125.039-.187.117-.187h.528v.07l-.059.059v.058l.059.059h.07l.234-.246h2.028l.176.129.234-.13c.133.048.215.13.246.247l-.058.059.468.234v-.117c-.148 0-.246-.14-.293-.422h1.008c.164 0 .445.121.844.363l.117-.117-.059-.059v-.187h.774l.117.129v.469l-.363.539h.058l.246-.176h.059v.773l-.059.059.059.058v.06l-.117.175.117.187v.774l-.117.117h-2.391v-.059l.246-.058v-.059h-.129v.059l-.058-.059h-.176v.176h-.949l-.305-.234.188-.364c-.352-.039-.571-.097-.657-.175l-.421.175v.176c.117 0 .175.063.175.188h-.058l.058.058v.059l-.117.117h-.832v-.059c0-.078.059-.117.176-.117l-.176-.246h-.293v-.117h-.363c0 .203-.117.305-.352.305l-.129-.13v-.41h.188l-.059-.058v-.363l.059-.059v-.058c-.133-.118-.254-.176-.363-.176v-.059l.058-.058-.058-.06v-.058l.117-.187c-.024-.102-.121-.2-.293-.293l-.246.117.07.293c0 .133-.063.273-.188.422v.117c0 .094.102.152.305.176v.129h-.187c0 .117.082.176.246.176v.597h.234v.059l-.117.117h-.773c0-.117-.079-.176-.235-.176l-.07-.058v-.364l.129-.175v-.235h-.188v-.48l.364-.305c0-.117.078-.176.234-.176v-.117h-.234l.117-.598c.078 0 .117.059.117.176.164 0 .246-.078.246-.234l.059-.059-.059-.058h-.07v-.176l.129-.13zm-4.653.246l.118.117.175-.058v-.059h-.293zm6.61.117v.117h.129v-.234l-.129.117zm.715-.117v.059l.187.058v-.058l-.059-.059h-.128zm-7.5.176v.058l.117.118h.058v-.118l-.058-.058h-.118zm8.753 0v.305l.118-.13-.059-.175h-.059zm-.949.176l.117.128.118-.128h-.235zm-3.879.058h.13l.116.13v.233h-.246v-.363zm-3.75.13v.058l.118.117.117-.117-.235-.059zm8.403.058l-.059.058v.176h.059c0-.117.039-.176.117-.176v-.058h-.117zm1.968.117v.117l.059.293h.059l.058-.352-.058-.058h-.118zm-1.675.293v.117l.246-.059v-.234l-.176.176h-.07zm-1.301-.059v.364l.058.058v.059h-.187c0 .062.121.14.363.234v-.058l-.058-.06v-.058l.058-.058-.176-.059c.016-.203.075-.305.176-.305l-.117-.117h-.117zm3.808 0l-.117.117c.039.305.098.504.176.598l-.234.363h.117c0-.078.058-.117.176-.117v-.187l-.059-.293.234-.059.071.059.058-.059-.058-.246-.305.07-.059-.07.059-.059v-.117h-.059zm-5.484.117v.059l.363.305.117-.117h.235l.539.468.059-.058v-.059c-.157 0-.235-.098-.235-.293l.059-.305-.176.247h-.129l-.41-.188-.246.07-.176-.129zm2.859 0v.059l.059.188h.059v-.06l-.059-.187h-.059zm-8.87.247c0 .117-.063.175-.188.175l.129.117-.07.06v.116h.304v-.058c-.078-.086-.117-.223-.117-.41h-.059zm8.519 0v.89c.133.188.289.305.469.352v-.059l-.235-.41.117-.246-.234-.235v-.293h-.117zm1.008.058v.117l.058.059h.117v-.059l-.117-.117h-.058zm.539.059l.058.058.059.059c.078 0 .117.078.117.234l.188.059.058-.059v-.117l-.363-.234h-.117zm-.832.117v.176l-.059.304h.059l.117-.117v-.363h-.117zm-8.168.058v.305l-.118.117-.117-.363.059-.058h.176zm1.793.598v.059h.058c.235-.04.352-.098.352-.176v-.059h-.234l-.176.176zm4.758.117c.218 0 .378.121.48.364h.059v.117l-.293.117h-.118c0-.164-.082-.324-.246-.48l.118-.118zm-1.665.305h.176l.246.234v.059h-.539l-.117-.117.234-.176zm-6.257.059l.058.058v.059l-.117.117-.059-.059v-.058l.118-.117z" fill="#fff"/><path fill="#FDCA16" d="M32 29.5h60v1H32z"/></svg>