<svg width="178" height="64" fill="none" xmlns="http://www.w3.org/2000/svg"><path d="M32 58.286c-.225 0-.446-.067-.634-.192l-3.429-2.286 1.268-1.902L32.346 56h5.065a55.8 55.8 0 01-1.439-5.714h-6.258c-.225 0-.446-.067-.634-.192l-3.428-2.286 1.268-1.902L30.06 48h5.496a88.113 88.113 0 01-.758-5.714H28.57c-.225 0-.446-.067-.634-.192l-3.428-2.286 1.268-1.902L28.917 40h5.677a104.21 104.21 0 01-.28-5.714H28.57c-.225 0-.446-.067-.634-.192l-3.428-2.286 1.268-1.902L28.917 32h5.369c0-1.9.055-3.814.159-5.714H28.57c-.225 0-.446-.067-.634-.192l-3.428-2.286 1.268-1.902L28.917 24h5.677c.15-1.942.353-3.857.61-5.714h-5.49c-.225 0-.446-.067-.634-.192l-3.428-2.286 1.268-1.902L30.06 16h5.496a66.156 66.156 0 011.202-5.714h-5.9c-.226 0-.447-.067-.635-.192l-3.428-2.286 1.267-1.902L31.203 8h6.208c1.066-3.403 2.395-6.191 3.98-8H21.714c-2.08 0-4.992 2.933-7.49 8h4.859l3.14-2.094 1.268 1.902-3.429 2.286a1.145 1.145 0 01-.633.192h-6.237A48.296 48.296 0 0011.239 16h5.558l3.14-2.094 1.268 1.902-3.428 2.286a1.146 1.146 0 01-.634.192h-6.478A58.763 58.763 0 009.65 24h4.861l3.14-2.094 1.269 1.902-3.429 2.286a1.145 1.145 0 01-.634.192H9.402A63.712 63.712 0 009.142 32h5.37l3.14-2.094 1.268 1.902-3.429 2.286a1.145 1.145 0 01-.634.192H9.188A62.76 62.76 0 009.65 40h6.004l3.14-2.094 1.268 1.902-3.428 2.286a1.145 1.145 0 01-.634.192H9.985c.38 2.27.87 4.403 1.444 6.38V48h6.51l3.141-2.094 1.268 1.902-3.428 2.286a1.145 1.145 0 01-.634.192h-6.362a43.412 43.412 0 002.3 5.714h6.001l3.14-2.094 1.269 1.902-3.429 2.286a1.144 1.144 0 01-.634.192h-5.105C17.644 61.935 19.97 64 21.714 64h19.677c-1.214-1.385-2.276-3.346-3.187-5.714H32zm13.714-11.429c1.894 0 3.429-6.652 3.429-14.857 0-8.205-1.535-14.857-3.429-14.857-1.893 0-3.428 6.652-3.428 14.857 0 8.205 1.535 14.857 3.428 14.857z" fill="#fff"/><path d="M45.714 0c-4.324 0-9.143 13.142-9.143 32s4.819 32 9.143 32c4.325 0 9.143-13.142 9.143-32S50.04 0 45.714 0zm0 49.143C41.788 49.143 40 40.257 40 32c0-8.257 1.788-17.143 5.714-17.143 3.927 0 5.715 8.886 5.715 17.143 0 8.257-1.788 17.143-5.715 17.143zm37.059-30.506l-.404.105c-.164 0-.387-.21-.668-.633h-.088v-.316h.65l.51.14v.704zm0 2.935l-.158.475h.158v.773h-.228l.07-.527v-.088h-.07l-.281.615h-1.002v-.228h-.176c0 .152-.053.228-.158.228h-4.043c0-.199-.2-.299-.598-.299l-.088.07-.158-.228v-.228c0-.106.14-.158.422-.158v-.088c-.281 0-.422-.076-.422-.229v-.387l.158-.158h.352c0 .153.058.229.176.229l.421-.07-.087-.088v-.07l-.088.07h-.246l-.176-.159v-.246c.105-.258.351-.386.738-.386h.105l.088.246.493-.159c0 .2.14.3.422.3v.632h.351v.475l.07.088v.07c.176 0 .264-.106.264-.317l.51-.07-.07-.088v-.07l-.088.07h-.194l-.246-.228-.088-.317h-.246l.088-.088v-.158l-.51-.14.159-.317h-.159v-.79h.334l.422.07c0-.153.053-.229.158-.229h.37l.07.229c-.399.093-.598.31-.598.65h.088c.164-.27.358-.404.58-.404l.176.14-.088.088v.404h.51c.117 0 .175.077.175.229h.176c0-.305.158-.457.475-.457l-.07-.088v-.088l.158-.703-.088-.07h.176c0 .152.058.228.175.228h.264v-.158h-.176l.088-.404v-.14h-.088v.14h-.158l-.105-.3h.44v.23h.333l.088-.07h.07c.094.198.264.298.51.298v.246l-.246.229-.193-.141-.475.14v.159h.334v.088l-.176.14-.088-.07h-.07v.158l.158.475h.176c0-.293.193-.633.58-1.02h.07v2.04zm-.826-.545l-.088-.088h-.07l-.264.247.088.087v.141c0 .258-.117.387-.351.387v.246h.105c.246-.211.44-.55.58-1.02zm-.685 1.108v.299l.175-.141-.175-.158zm.105-4.342v.158l-.44.088-.58-.088.176-.158h.844zm-.105 3.48h-.176c0 .094-.105.141-.317.141v.158l.405-.228h.088v-.07zm-.176-2.689c0 .117-.275.275-.826.475v.07l.422.088c0-.164.058-.246.175-.246l.07.404-.245.387v.088h-.246l-.176-.159v-.386c-.258 0-.457-.082-.598-.246v.07l-.07-.07h-.07l-.528.158-.176-.246.264-.229v-.07l-.176-.158c-.422 0-.674.181-.756.545h-.088l.088.07v.088l-.175.158h-.58c0-.27-.06-.404-.176-.404h-.07c-.223.093-.335.281-.335.562.317 0 .475.053.475.158h-.07l.07.229h.105c.118 0 .176-.076.176-.229l.07-.087h.264l.246.158c0 .422-.193.633-.58.633 0-.094-.14-.141-.422-.141v-.176h-.263c-.528.692-.838 1.037-.932 1.037-.105 0-.158.13-.158.387l-.088.07h-.422l-.422-.07v.07l.159.405-.088.07h.175c.118 0 .176-.106.176-.317.117 0 .176.135.176.405h.088l-.194.457h.106l.334.088v.14h-1.951l-.58-.07-.756.07h-5.572c-.2 0-.428-.1-.686-.299h-.158l.07.07v.23h-.07l-.088-.071-.404.07h-1.09l-.528-.457v-.386l.176-.247.07.07h.282l-.194-.456h-.158v-.475h.352l.14.317v.087h.088l.176-.158v-.088c-.152 0-.322-.158-.51-.474l.106-.475c.375.059.562.14.562.246v.387c.164 0 .246.135.246.404l.528.3h.07v-.3h.51v.3l-.422.474v.158h.088c0-.258.17-.387.51-.387h.087c0 .211.141.37.422.475v.07h-.175v.158h.246l.685-.158v-.158l-.527-.246-.158.176-.668-.862.088-.246h-.088c-.258 0-.428-.205-.51-.615.258-.117.398-.281.422-.492h.263l.176.158v.07l-.088.405.088-.07h.07l.493.157v-.404l-.088.088h-.158v-.246l.351-.158h.088v-.07c-.398 0-.598-.053-.598-.159v-.158l.088-.246h-.088l-.51-.158.089-.07v-.07l-.176-.16c0 .364-.112.546-.334.546l-.404.088-.088-.633-.088.07h-.598c0 .317-.058.475-.176.475h-.51v-.475c0-.094.17-.17.51-.228 0-.375.059-.563.176-.563h.598v.158h.088c0-.21.052-.316.158-.316h1.494l.527.563v-.563h.088l.246.158h.264l.246-.158h4.975c.105 0 .158.082.158.246h.088c0-.164.058-.246.175-.246h1.864l.158.158v.088l-.088.07v.07h.088l.422-.386h3.287v.158l-.158.158v-.07l-.264.07v.176h.422c.106 0 .158.152.158.457h.088l.176-.562h.176l.088.105h.087l.088-.105a.747.747 0 00.475.404zm-.404 2.988h-.246v.159l.246-.07v-.089zm-.422.159c-.293 0-.463-.077-.51-.229l.088-.316-.088-.545h-.228l.228 1.09.158.158h.176l.176-.159zm-1.688-3.551l-.246-.07-.088.07v.105l.246.158.088-.088v-.175zm-.334 4.025l-.175.158v.159h.087l.246-.088v-.07l-.158-.159zm-.175-.703h-.088l-.246.07v.317h.175l.159-.317v-.07zm-.669-3.059l-.105-.088h-.228l.228.229.105-.07v-.07zm-2.038.457v.229h-.07l-.089-.387h-.175v.158h-.335l-.421.07-.159-.456h.07l-.07-.405h-.088l-.087.07h-.088l.175.792h-.175v.158h.615v.404l.316-.07.246.07v.545l-.246.246-.088-.07h-.158l-.175.14h.263v.159l-.351.316h-.088l-.07-.088-.089.088h-.087l-.422-.088v.159l.668.087-.07.088v.158h.07c0-.105.146-.158.44-.158.023-.27.105-.404.245-.404l.686.316v-.246h-.194v-.228l.106-.07v-.088l.422.087h.07v-.158l-.492-.07.088-.088v-.088l-.264-.088v-.527h-.351v-.334h.175v.176h.088l.264-.088v.088c0 .117.193.216.58.299v-.3l-.685-.404zm-1.09.704c-.282 0-.422-.047-.422-.141l.088-.246c-.13.105-.323.158-.58.158v.158c0 .094.134.17.404.229l.088-.07.175.298h-.175v.088h.334l.088-.474zm-.088 2.443h-.334c0 .082.111.164.334.246v-.246zm-.492-.387h-.088l-.176.14h.264v-.14zm-.334-3.375h-.176l-.088.229.088.07h.422v-.07l-.246-.229zm-.51 2.83h-.246v.07l.07.23h.176v-.3zm-.246.774h-.088l-.598.088v.228c.27 0 .404.129.404.387.223-.024.399-.176.528-.457l-.246-.246zm-.282-3.305h-.158l-.246.246.176.387h.07l.158-.158-.087-.387.087-.088zm-.158 1.969h-.158v.316l.229.246h.087v-.088l-.158-.474zm-.404 1.248l-.352-.07v.158h.352V21.8zm-.44-3.358l-.087-.088h-.088v.088h.088l-.088.07v.159h.088l.088-.229zm-.175.3h-.07l-.247.228h.07l.247-.229zm0 2.284h-.159l-.087.475h-.07c-.188 0-.387-.076-.598-.229h-.088v.141c0 .105.117.158.351.158l.088.475h.404l.159-1.02zm-.405-1.564h-.07v.299h.158v-.07l-.088-.23zm-.421-1.283h-.176v.175l-.088-.07h-.088l-.246.07v-.07l-.088-.246h-.07v.246c.386.188.58.527.58 1.02h.175l-.175-.721.175-.14v-.264zm0 4.183l-.088-.07h-.264c0 .152-.111.229-.334.229v.228c.258-.21.457-.316.598-.316v.158h.088v-.229zm-1.442-3.779h-.334l.51.387.088-.07-.264-.317zm-.158 3.55c-.281 0-.422-.134-.422-.404h-.088l-.088.633h.51l.088-.228zm-.598-3.392l-.158.158.07.229h.088v-.387zm-.246-.228h-.088l-.158.158v.07h.158l.088-.07v-.158zm-.527.228h-.088l-.14.158.14.159.088-.317zm-1.09-.387c-.164 0-.246-.082-.246-.246l-.158.176-.088-.105H65.6v.404h.088c.117-.094.304-.14.562-.14v-.088zm-.404 1.407h-.44l-.158-.159.51-.14.088.07v.229zm-.862 2.373h-.07v.07c.047.317.129.475.246.475h.088v-.317l-.264-.228zm-.668-4.184l-.088.088h-.07l-.176-.158.088-.088h.088l.158.158zm6.293 24.996v-8.824l.264-.422-.088-.264v-.087l.088-.106h-.264v-.685l.176-.194h.264l.105.106c0-.645.118-.967.352-.967l-.088-.37.176-.157h.633V30.8c.234 0 .351-.059.351-.176h-.72l-.44-.105v.105l-.545.176h-.088l-.176-.176v-3.34h.176v.422h.176l.193-.51.44-.175.088-.088h-.264l-.264.175h-.369l-.176-.175v-.616l.088-.088c.176 0 .264-.093.264-.28l-.352-.51v-.792h.176v-.439l-.176-.264v-.088l.176-.175h.37v.175h-.194v.088h.545v-.263h1.072v.44h.088l.545-.44h.44c.117 0 .175.088.175.263h.545c0-.175.059-.263.176-.263h.633l.175.175.264-.175h.545l.176.175v.704h-.264c0-.235-.181-.352-.545-.352h-.088l.088.264-.44.527v.088l.528-.44h.194l.263.264V25l-.088.44c-.363.081-.545.17-.545.263v.088l.545-.264c.118 0 .176-.146.176-.44h.176v2.462l-.264-.088-.176.158c.176 0 .323.123.44.37v3.866h-.176v-.351h-.457l.633.686v1.054c-.176.305-.387.457-.633.457 0 .106.094.158.281.158v.457l-.175.176h-.545v-.545c0-.117.088-.175.263-.175l-.175-.247c-.2.282-.44.422-.721.422v.176h-.528l-.088.088.176.281.264-.176h.457c.117 0 .176.17.176.51.234 0 .351.123.351.37l.457-.282h.44v8.033h-5.73zm5.098-4.693l.193-.527-.088-.264h-.193v.79h.088zm.37-2.092l.087-.457-.352-.088v.088l.176.457h.088zm-4.571-.545v-.422h-.176v.422h.176zm2.513-.422c.364 0 .692.14.985.422l.088-.088c-.07-.176-.37-.351-.897-.527l-.175.193zm-1.44 0v-.369l-.177.176v.193h.176zm-1.794-.369c.48-.082.72-.193.72-.334h-.263l-.457.334zm2.338-.176l.088-.246v-.088h-.281v.334h.193zm3.041.088l-.088-.088.088-.615v-.176h.176v.88h-.176zm-2.69-1.3c.083.28.17.421.264.421 0-.316.153-.58.457-.79v-.335l-.896.616v.087h.176zm-2.425-.088c.164 0 .345.087.545.263h.088l.263-.457-.263-.263h-.088c-.176.234-.358.351-.545.351v.106zm1.705.263c0-.117.094-.175.281-.175v-.088h-.193v-.106l.088-.422c.363-.117.545-.234.545-.351v-.106l-.352.106h-.088l-.105-.106c0-.234-.059-.351-.176-.351v-.51h-.088l-.088.44-.44-.088h-.087l-.194.158v.088l.194.457h.263l.44.088v.175l-.264.246.088.545h.176zm3.41-.457v-.263h-.545v.175l.545.088zm-.984-.79h.088v-.176c-.422-.118-.633-.288-.633-.51h-.264v.334l.264-.07.545.421zm-4.483-.352l-.088-.07v-.81h.176c0 .177.123.329.37.458 0 .305-.153.474-.458.51v-.088zm4.659-.616c0-.082-.118-.17-.352-.263v.175l.352.088zm-1.97-.087l.089-.247h-.088l-.088-.087h-.264l.352.334zm.81-.334l.087-.088c0-.176.088-.264.264-.264v-.193c-.41.21-.615.363-.615.457v.088h.263zm-1.442-.791c0 .105.328.187.984.246-.293-.188-.44-.416-.44-.686h-.175c0 .235-.123.352-.37.352v.088zm1.969.07v-.07l.105-.088h-.369v.088l.264.07zm-3.217-.07a.935.935 0 00.545-.44h-.282c-.292 0-.439-.146-.439-.44h-.088c0 .165-.094.247-.281.247v.281l.088.088.281-.088c.117 0 .176.117.176.352zm3.129-1.23c0 .233.27.433.808.597v-.334c-.457 0-.697-.117-.72-.352h-.088v.088zm-2.233.421h.176l-.176-.158h-.175l.175.158zm3.674-.334l-.088-.37h-.281l.106.37h.263zm-3.234-.879v-.088l-.088-.264h-.264c0 .118.088.176.264.176v.176h.088zm-.791-.352h.263l-.175-.193h-.282l.194.194zm1.248-1.582v-.175c-.176 0-.264-.059-.264-.176h-.193v.07l.457.281zm.527 0c.13-.023.252-.17.37-.439l-.089-.44h-.457v.088c.246 0 .37.088.37.264v.176l-.194.264v.087zm-1.424-.351l-.175-.176h-.088v.176h.263zm.721-.879v-.176h-.281l-.176.176h.457zm-.896-.352l.087-.351-.263-.088-.194.264.37.175zm2.689-.175v-.176h-.281v.176h.281zm20.654-6.68l.088.088v3.92l-.51.351v.088l.264.088c0-.176.053-.264.158-.264h.088v.176l-2.215.774-1.459 1.107-.685-.176c.117.258.234.399.351.422 0-.164.053-.246.159-.246v.158c-.973 1.172-1.594 2.655-1.864 4.448l-.088-.088h-.263c0 .117.088.175.263.175l.088.088v.176c0 .68-.088 1.02-.263 1.02h-.088l.088.088v.175l-.176.159-.246-.088-.088.088v.087l.088.088h.088l.246-.088c.21.211.41 1.096.597 2.655l-.246.246h-.088v.088h.159v-.088c.293 0 .44.258.44.773l-.089.088c.13.035.586.75 1.371 2.145 0 .129.598.58 1.793 1.353l1.442.352v.246l-.088.088v.088l-.07-.088h-.176v.263h-.176v-.088l.088-.087v-.088l-.51-.088c-.176.515-.492.773-.95.773v.176c.177 0 .265.111.265.334v.088l.334-.088-.07-.088v-.07c.28 0 .421-.059.421-.176v-.176l-.088-.246h.088l.334-.088h.176l.597.158v-.07c.235.082.352.164.352.246l-.088.088v.088h.088l-.088.088v.246l.088.088v.088l-.088.088h-.088l-.176-.176c0 .117-.087.176-.263.176l-.07.422h.07l.351-.088c0 .117.112.176.334.176v.175l-.158.422h-.088l-.351-.176-.334.264v.176h.175v.334l-.175.176-.352.087v-.263h.176v-.176l-.246-.07c.34-.422.51-.739.51-.95-.13 0-.329.229-.598.686l.088.088h-.088l-.264-.176h-.088l-.158.176c0 .164.112.246.334.246l-.088.264.088.422-.088-.088h-.088v.088c.176 0 .293.199.352.597h-.176v.088l-1.53-.334.071-.44-.51-.157-.175.158c0-.223-.082-.334-.246-.334h-.088c0 .222-.112.334-.334.334-1.032-.317-2.256-1.196-3.674-2.637l.07-.352-.07-.087h-.088l-.176.175-1.283-1.793.088-.263h-.088c-.211 0-.58-.768-1.108-2.303 0-.516.2-.773.598-.773l-.088-.422c.117 0 .176.088.176.263l.088-.088h.07l.088.088v-.263h.264l.176.175-.264.246.088.088v.176l-.088-.088h-.088l-.088.598.44.088v-.088c.351 0 .632.17.843.51l-.088.088.088.088h.176l-.176-.51h.088l.264.088v-.088l.246.175.088-.087h.176v.175l.175-.175v-.088l-.087-.088v-.088l.087-.088-.087-.088h-.088c0 .234-.088.352-.264.352h-.088c-.258-.282-.457-.422-.598-.422l-.158.158h-.351c-.118-.023-.229-.164-.334-.422 0-.281.14-.51.422-.685l.088.088v-.088l.334.175.087-.087v-.088l-.088-.088.176-.334-.088-.088.088-.088h-.175l-.07.088h-.089l-.263-.088v.088l-.176.176v-.088l-.51.175h-.773v.159h-.422c-.223 0-.334-.428-.334-1.283l.422.263h.263V32.4l-.088-.421.246-.264h-.087l-.334.264-.176-.352.088-.07-.334-.176c.035.34.088.51.158.51l-.07.263c-.176 0-.264-.627-.264-1.88 0-1.372.088-2.057.264-2.057l-.088-.088v-.088c.152-1.746.89-3.68 2.215-5.8 2.484-2.966 5.501-4.448 9.052-4.448zm1.196 0c2.625 0 5.162.996 7.611 2.988 1.523 1.606 2.408 2.948 2.654 4.026l-.176.246v.175l.176.176v-.527c.153 0 .323.486.51 1.459h-.176v-.246c-.117 0-.176.17-.176.51-.105 0-.158.14-.158.421l-.088.088h-1.195l-.598-.51h-.088l.088.088v.422l-.421.176h-.44v-.176h-.176v.246l.264.352h-.088l-.088-.088h-.088v.422l-1.107-.334v.176c0 .164.346.246 1.037.246 0 .094.17.21.51.351l.246-.087.088.087v-.087l.088.087h.087l.334-.087.352.087.176-.263c-.176 0-.264-.14-.264-.422l-.334.088-.264-.088v-.176c0-.316.141-.515.422-.598l.176.422-.088.088v.176h.088c0-.152.199-.27.598-.352l.088.088v.264c-.153 0-.241.14-.264.422h.176v-.176c.176 0 .263-.111.263-.334l.071-.088v-.088h-.158v-.088h.158l.088.088h.088l.861-.422.176.264-.088.246c.164 0 .246.317.246.95l-.246.421-.088-.088h-.176c0 .153-.141.24-.422.264l-.088.088v.158l.598-.246-.088.088v.158h.422l.176.176-.088.088v.088l.176.158-.088.088.088.44-.088.51c-.117 0-.176-.118-.176-.352h-.334v.351l-.088.422-.334-.088-.264.088.088.264.334-.176v.176h.264l.088-.088h.088v.088l-.088.246h.422c0 2.273-.967 4.722-2.901 7.347-2.519 2.567-5.338 3.85-8.455 3.85v-.176c.164 0 .246-.052.246-.158h-.334v-1.195h.159v-.528h.263l.264.176h.07l.352-.176-.51-.685v-.334c0-.61.229-.95.686-1.02l-.088-.088.088-.088v-.334l-.44.07v-.245l.774-.176v.088l-.088.088v.088h.175c0-.235.457-.58 1.372-1.038.679-.562 1.019-.931 1.019-1.107h.598v-.088l-.088-.088v-.07l-.088.07h-.158v-.07c0-.094.252-.293.756-.598v-.263l-.071-.422.071-.088h.175l.088.088.088-.088h.088c.164 0 .246.082.246.246h.088v-.334h-.422c-.117 0-.176-.088-.176-.264l.088-.597h.088l.246.176h.088l-.088-.088c.035-.282.123-.422.264-.422v-.176c-.223 0-.334-.059-.334-.176v-.51l.07-.087v-.07l.088.07h.176c0-.106.088-.159.264-.159l.07-.44h-.158v.177l-.176.175h-.264v-.088c.035-.632.094-.949.176-.949h.176v-.07l-.264-.44v-.421h.176v-.088l.088.088h.088c.164 0 .246-.088.246-.264h.088v.176h.861l.334-.088 1.037.264c.246-.282.469-.422.668-.422l.176.158h.088v-.088c-.176 0-.264-.053-.264-.158h.088l-.246-.352c-.059.153-.375.299-.949.44l-.158-.176h-.176l-.088.088h-.088l-.088-.088V29.5l.176-.51-.51.176h-.264l-.087-.088-.088.088h-.071c-.082-.117-.427-.176-1.037-.176l-.246-1.107c.106 0 .158-.117.158-.352l.44-.088-.949-.843.087-.088v-.088l-1.019-1.705c-.844-1.032-1.928-1.746-3.252-2.145-.68-.082-1.02-.193-1.02-.334v-4.27l.159-.176zm5.994 2.813v.087c.105 0 .158.088.158.264h.176v-.352h-.334zm-14.45 1.546v.246c.247-.128.387-.27.422-.421h-.07l-.352.175zm17.86 3.252c0 .164-.141.246-.422.246v.088h.334l.51-.175v-.159h-.158l-.088.07h-.088l-.088-.07zm-20.25.51v.176h.264v-.176h-.264zm3.937 1.705c0 .117-.088.176-.263.176v.158h.088l.334-.334h-.159zm-1.722.176v.158h.263v-.158h-.263zm16.664.158v.088l-.158.176v-.088l.158-.176zm-.334.598v.264h.088l.088-.264h-.176zm-18.545.088v.175l.176.176.088-.088v-.263h-.264zm.773.351v.176h.246v-.088l-.246-.088zm19.301.246l.088.088v.088l.088-.088h.351c.106 0 .159.117.159.352l.088.088h.087l.088-.088-.088-.51h-.421l-.44.07zm-20.672.088v.176l.264.088V29.5l-.264-.176zm17.086-.088l.598.176-.088.088v.176l.088.088v.07l-.088.088c-.398 0-.598-.2-.598-.598l.088-.088zm-15.205.264v.088l.088.246c-.188.14-.445.229-.773.264 0-.141-.112-.229-.334-.264l-.088.088v.088c.457 0 .685.287.685.861h-.088c-.117 0-.175.082-.175.246-.457.2-.686.346-.686.44h.088c.516-.117.773-.293.773-.528l.51-.07v.07l.088-.07h.176l-.088.07v.088l.088.088.07-.088h.088l.176.176-.088.088h.422v-.088l-.07-.264h.158v.176h.263l-.088-.088v-.158h.088l.334.246.264-.088-.088-.088v-.07l.088-.44h-.51v-.158h-.088v.159c-.398-.082-.597-.223-.597-.422v-.088l-.088.088h-.088c-.2-.13-.34-.328-.422-.598h-.088zm19.916.334l-.088.44.246.087.264-.088.088.088v.07l.246-.07v-.351h-.07c0 .175-.059.263-.176.263-.234 0-.352-.146-.352-.439h-.158zm-21.533.598v.263l.246-.088v-.175l-.088.088h-.088l-.07-.088zm17.508.44c0 .163-.059.245-.176.245l-.07-.088h-.088v.088c0 .14.31.258.931.352 0 .164.059.246.176.246l.088-.088v-.07c-.176 0-.264-.117-.264-.352l-.087.088h-.088c-.153 0-.235-.14-.246-.422h-.176zm-17.596.685v.158h.334l-.176-.158h-.158zm1.108 0l-.088.334c.117 0 .175-.088.175-.264v-.07h-.087zm19.23.07v.088h.422l-.176-.158-.246.07zm-1.547.176l-.088-.088h-.088l-.07.088v.175l.07-.087h.264l.264.175v-.439h-.088l-.264.176zm-18.017.351v.088l.246-.263h-.088l-.159.175zm17.841-.088v.088l.088.246-.088.088h.264V32.4l-.176-.334h-.088zm.862.246l.087.264h.264V32.4l-.351-.087zm2.39 0l-.088.264h.264v-.264h-.176zm-18.193.352l.088.088v.088l.422-.088v-.176h-.088l-.422.088zm-.51.176l.07.246.352-.334h-.176l-.246.088zm-1.125.334l-.246-.088h-.088v.088l.598.334h.088l-.088-.422.176-.176h-.088l-.352.264zm15.135-.088v.088l.088.264h.246l-.158-.352h-.176zm-13.94.51c0 .176-.052.263-.158.263l-.351-.087v.087l-.088-.087h-.07l-.352.51.088.35h.088c0-.234.14-.41.422-.526h.263v.087h-.176l.264.44h.422l.088-.088h.088l.334.334h.088c-.352-.563-.61-.844-.774-.844v-.44h-.176zm14.45.176l-.088.334h.263l.334-.159-.087-.088v-.087l-.088.087h-.159l-.087-.087h-.088zm-18.633.175h.088l.351.088v.07l-.263.264h-.088l-.088-.422zm2.654.158l-.088.264.088.264h.088l.088-.264.246.088v-.264l-.422-.087zm-1.969.862l-.087.088v.088l.86.51v-.176a.63.63 0 00-.263-.51l-.088.088h-.07l-.352-.088zm17.438 0l.176.176h.07l-.158-.176h-.088zm-12.393.422v.088h.264v-.159l-.264.07zm11.795.685l.088.264h.088l.158-.176v-.176l-.158-.158c-.117 0-.176.082-.176.246zm1.617-.088l.088.088-.088.088h.264l-.088-.334-.176.158zm-12.638 0v.176l.158.176.176-.176-.246-.176h-.088zm-3.428.528l.352.07.158-.246H87.8l-.176.176zm14.959-.088v.088l.088.07h.246v-.07l-.334-.088zm-1.02.334l.088.263h.071l.175-.175v-.176l-.175-.158c-.106 0-.159.082-.159.246zm-10.95.175l.087.088v.088l-.088.246.088.088h.176c0-.293-.088-.463-.264-.51zm.685.422l-.422.422.773-.246v-.088l-.351-.088zm-3.322.176l.087.334h.159l.175-.158v-.176l-.087.088-.088-.088h-.246zm-1.371.51v.264h.087l.246-.088-.158-.176h-.175zm3.163 0v.352h.088l.088-.352h-.175zm3.85 0l.07.088v.088h-.158v.175l.246-.175.088.088v-.088l-.175-.176h-.07zm-6.504.176v.246l.088.088h.088v-.088l-.088-.246h-.088zm3.938.088v.334c0 .28.14.48.422.597h.175v-.334l-.597-.597zm-3.34.597l.176.158.088-.07v.07l.246-.07-.088-.264h-.246l-.176.176zm1.195.158l.176.176h.176l.088-.334h-.088l-.352.158zm7.858-.07h.175l-.088.422h-.087l-.159-.176v-.088l.159-.158zm-8.192.51h.088l.158-.176v-.088l-.246.264zm.844-.264v.264h.176v-.264h-.176zm.264.352l.087.07-.087.088v.088l.175.176.246-.088v.176h.088c0-.118.118-.176.352-.176l.158-.176v-.158l-.246.158-.51-.158h-.263zm8.209.158v.088l.246.088v-.176h-.246zm-1.284.264h.159v.685l-.159.158v-.843zm-7.523.422v.088c.117.28.316.421.598.421h.421v-.087l-.421-.07-.264.07.088-.07v-.177l-.422-.175zm1.617.088l-.158.263h.158l.088-.263h-.088zm9.14.263v.07h.177l.087-.246h-.087l-.176.176zm-7.769.246v.088l.088.088h.264v-.088l-.352-.088zm.95 0l.158.44h.351v-.176c-.117 0-.175-.088-.175-.264h-.334zm-2.743.176l-.088.264h.088l.334-.176v-.088h-.158l-.088-.088-.088.088zm2.303.264l-.088.07v.088h.176l-.088.088v.088h.352v-.264l-.352-.07zm2.988-.088h.088v.685l-.088.07v.089l-.246-.088c.07-.504.153-.756.246-.756zm2.32.334l-.087.088v.175l.246.088v-.175l-.158-.176zm-2.83.51c.34 0 .51.146.51.439l.088.246h-.088l-.685.088v-.088l-.246-.334-.088.088h-.088v-.176l.598-.263zm18.493-24.592l.088.088h.984l.176.175v10.125l-.088.352.088.264h-.088l.088.088v2.953l-.088.105.088.088v10.916l-.176.176h-.545V42.7h-.176c0 .176-.058.264-.175.264h-2.866V42.7h-.175v.264h-1.442l-.176-.176V17.9l.176-.176h4.219l.088-.088zm2.32.088h4.834c3.586.187 5.379.697 5.379 1.529h.439c1.676 1.207 2.514 3.023 2.514 5.45 0 2.683-1.019 4.564-3.059 5.642l-.175-.176c0 .293-.358.504-1.073.633v.088c1.032 0 1.987.92 2.866 2.76l-.088.105h-.352l-.088-.106h-.105l-.088.37h.088l.545-.088c.234 0 .416.656.545 1.968h-.194l-.439-.088-.352.44c.164 0 .311.123.44.37v.175l-.088.088v.088h.633v-.176h.175l.528 2.777c-.352.117-.528.235-.528.352v.088h.44c.176 0 .357.416.545 1.248l-.281.281v.264l.281-.176h.088c.14.059.381.387.72.984l-.369.352h-1.424l.176-.72v-.264c-.176 0-.293.328-.351.984h-1.53l-.175-.176.088-.088h.175l.457.088v-.264l-.105-.369.281-.351.44.088.369-.088v-.457c-.903.199-1.354.38-1.354.545l.088.544-.088.088h-.808c0 .293-.059.44-.176.44h-1.424c-.199 0-.557-.715-1.072-2.145l.088-.263c-.164 0-.493-1.582-.985-4.747-.211-.75-.691-1.347-1.441-1.792-.703-.246-1.658-.37-2.865-.37v-.263h.175v-.176h-.175c0 .117-.118.176-.352.176v.263l-1.529.106h-.264l-.176-.194v-1.687c0-.129.147-.193.44-.193v-.176h-.088l-.264.088-.088-.088V29.27l.176-.175h2.232c3.528 0 5.291-1.043 5.291-3.13v-.72c-.21-1.734-1.048-2.601-2.513-2.601 0-.106-.744-.165-2.233-.176h-2.777l-.176-.176v-4.395l.176-.175zm10.02 5.466h.087l.194-.175h-.088l-.193.175zm-11.637 2.145v.176h.281v-.176h-.281zm10.301 1.793l-.088.264.088.263h.088l.087-.527h-.175zm-10.213.72c0 .235-.117.352-.352.352v.088h.088c.27-.117.422-.234.457-.351v-.088h-.193zm8.508.352l.369.352h.351l.176-.176h-.721v-.176h-.175zm-9.211.176l.175.176h.088v-.176h-.263zm7.787.72l.176.264-.088.088h-.088l-.088-.088c-.305 0-.697.153-1.178.457h-.264l.088.088v.088l-.175.527h.263c.364-.128.545-.363.545-.703l.264-.193h.369c.176 0 .264.123.264.37h.175l.264-.458c-.117 0-.176-.117-.176-.351l-.088-.088h-.263zm-3.41.177l-.088.351h.263v-.352h-.175zm5.906 0v.72h.176v-.72h-.176zm-6.803.175v.176l.176.193-.088.088v.264h.369l-.088-.088v-.088l.264-.369-.545-.176h-.088zm5.731 1.248l-.176.37.896.351v-.176c-.117 0-.176-.117-.176-.351l-.369-.194h-.175zm-3.481.457l.088.264h.176l.176-.176v-.088l-.44-.088v.088zm-6.803.264c0 .223-.181.375-.545.457v.088h.457l.176-.457v-.088h-.088zm1.512 0v.176h.369v-.176h-.369zm2.865.176v.088l.545.28h.791v-.175h-.791c-.129 0-.193-.094-.193-.281l-.352.088zm1.442.369l.175.176h.528v-.088l-.176-.176-.527.088zm-5.379.352v.175h.351l.106-.351h-.106l-.351.175zm10.652-.176l-.088.088v.175l.352-.175v-.088h-.264zm-1.617.72l.281 1.336h.176v-.263l-.176-.721.176-.264v-.088h-.457zm4.658.528v.088l.264.087v-.175h-.264zm.088.984l-.176.281.352.264.105-.088h.088l.528.352v-.721h-.264l-.457.088-.176-.176zm-1.969.545v.088h.088l.281-.264v-.193l-.369.37zm-1.511-.088l-.088.352v.088h.088l.087-.352v-.088h-.087zm3.656.264v.545c.129 0 .193-.094.193-.282l-.088-.263h-.105zm-1.881.633h.105l.176-.194h-.088l-.193.194zm1.002 0v.175l.439-.088v-.087h-.439zm-12.094.527l-.088.37h.176l.088-.37h-.176zm12.358.37h.175l.352-.194v-.176h-.088c-.269.117-.416.24-.439.37zm-2.778-.194l.352.545h.176v-.176c-.176 0-.264-.123-.264-.37h-.264zm-9.843.369c0 .176-.182.264-.545.264v.175l.72-.263v-.176h-.175zm11.636.088v.088l.176.176h.176l.176-.176-.528-.088zm.176.527l-.264-.176-.193.176v.088h.633l.088.105c.363-.128.545-.251.545-.369l-.088-.087h-.088c-.223.175-.434.263-.633.263zm-1.441.37v.087h.193v-.264l-.193.176zm-.985.439c.071.363.164.545.281.545l.176-.176v-.106l-.263-.263h-.194zm1.969.175l.105.37h.088l.352-.176v-.194h-.545zm1.529 0v.194h.352v-.194h-.352zm-2.777.37l.176.175h.193v-.175h-.369zm-11.637.527v.088l.281.281h.088v-.369h-.369zm14.063 0c0 .117.205.299.615.545h.193v-.088c0-.094-.211-.246-.632-.457h-.176zm-13.518.37v.175h.264l-.176-.176h-.088zm10.916.35c.387.118.627.3.721.546l.808.263v-.263c-.41 0-.738-.211-.984-.633l-.105-.088h-.264l-.176.176zm3.674.176l.176.176.176-.175h-.352zm-17.455.37v.175h.264v-.175h-.264zm16.101.175c0 .235-.058.352-.175.352l.088.088v.088l-.176.281v.088h.369v-.897h-.106zm2.338 0v.176h.352v-.176h-.352zm-16.839.44v.088c.421-.059.632-.147.632-.264v-.088h-.351l-.281.264zm12.357-.088l.176.176h.088l-.176-.176h-.088zm-13.518.72h.37l-.194-.175-.176.176zm2.778 0l-.088.089v.087h.263l-.175-.175zm-3.129.089v.263l.176-.175v-.088h-.176zm1.793.087l.088.264h.088v-.264h-.176zm1.072 0l-.176.176v.282l.264-.37v-.087h-.088zm11.988.352v.193h.088l.457-.087v-.282h-.176l-.369.176zm5.203 1.178h.44l.176.175-.176.176h-.44l-.193-.175.193-.176zm.317-25.77h5.379l.176.176v2.057l-.176.193h-.176c0-.152-.152-.334-.457-.545v-.176h-.088l-.088.088h-.088l.545.809-.457.351h.088l.809-.44.088.089v11.197h-.44l-.457-.281c0 .246-.117.369-.352.369 0 .352-.058.527-.175.527h-.457l-.264-.176-.176.282.088.088h.527v.175c.282 0 .522.147.721.44l.176-.264c-.176 0-.264-.058-.264-.176v-.545h.545l.176.176v.457c-.188 0-.281.059-.281.176.246 0 .457.153.633.457v1.072l-.633.703h.457v-.351h.176v3.938c-.118.246-.264.369-.44.369l.176.175.264-.087v2.496h-.176c0-.293-.059-.44-.176-.44l-.545-.264v.088c0 .094.182.182.545.264l.088.457v.088l-.264.264h-.193l-.528-.457v.105l.44.527-.088.264h.088c.363 0 .545-.117.545-.352h.264v.721l-.176.176h-.545l-.264-.176-.176.176h-.632c-.118 0-.176-.088-.176-.264h-.545c0 .176-.059.264-.176.264h-.439l-.545-.44h-.088V43h-1.072v-.264h-.545v.088h.193V43h-.369l-.176-.176v-.088l.176-.28v-.44h-.176v-.809l.352-.527c0-.188-.088-.282-.264-.282l-.088-.088v-.632l.176-.176h.369l.264.176h.263l-.088-.088-.439-.176-.193-.527h-.176v.44h-.176v-3.411l.176-.176h.088l.545.176v.106l.439-.106h.721c0-.117-.117-.176-.352-.176v-.175h-.633l-.175-.176.088-.37c-.235 0-.352-.328-.352-.984l-.105.106h-.264l-.176-.194v-.703h.264l-.088-.105v-.088l.088-.264-.264-.44v-14.43l.176-.176zm1.617.264l-.176.281h.088l.264-.105-.176-.176zm.984.808v.176l.088.088h.176v-.088l-.176-.175h-.088zm0 1.442v.088l1.073.44.088.087h.087l-.087-.44v-.175l.175-.281h-.703l-.633.28zm1.336.615l.194.194h.175v-.194h-.369zm-3.673.194v.175l.193.176.088-.088v-.088l-.176-.175h-.105zm4.57 7.066v.808h.193l.088-.263-.193-.545h-.088zm.369 2.144l-.176.457v.088l.352-.088-.088-.457h-.088zm-4.658.545v.44h.176v-.44h-.176zm2.689.44l.176.193c.527-.176.826-.357.896-.545l-.087-.088c-.293.293-.621.44-.985.44zm-1.617 0v.193l.176.176v-.37h-.176zm-1.617.369l.457.352h.264c0-.153-.241-.27-.721-.352zm2.144.176v.351h.282v-.088l-.088-.263h-.194zm3.411-.088v.896h-.176v-.175l-.088-.633.088-.088h.176zm-3.041 1.336v.088l.896.633v-.352c-.305-.211-.457-.48-.457-.809-.094 0-.182.147-.264.44h-.175zm-2.25.088v.105c.187 0 .369.117.544.352h.088l.264-.264-.264-.457h-.088c-.199.176-.38.264-.544.264zm1.529-.264l-.088.545.264.264v.175l-.44.088h-.264l-.193.457v.088l.193.176h.088l.44-.088.088.44h.088v-.528c.117 0 .175-.117.175-.351l.106-.106h.088l.351.106v-.106c0-.117-.181-.234-.545-.351l-.088-.44v-.105h.194v-.088c-.188 0-.281-.059-.281-.176h-.176zm3.041.545v.176h.545v-.264l-.545.088zm-.985 1.16l-.263-.088v.352h.263c0-.235.211-.41.633-.528v-.175h-.088l-.545.44zm-3.937-.176c.305.035.457.211.457.528-.246.128-.369.28-.369.457h-.176v-.809l.088-.088v-.088zm4.307.809v.176c.234-.094.351-.182.351-.264l-.351.088zm-1.969.352h.264l.087-.088h.088l-.088-.264-.351.352zm.896 0v.087c0 .094.205.246.616.457v-.193c-.176 0-.264-.088-.264-.264l-.088-.087h-.264zm-1.177.808v.088c.246 0 .369.117.369.352h.176c0-.27.146-.504.439-.704-.656.059-.984.147-.984.264zm1.705 0v.088h.369l-.106-.088v-.088l-.263.088zm-2.953 0c0 .234-.059.352-.176.352l-.281-.088-.088.088v.28c.187 0 .281.089.281.264h.088c0-.304.146-.456.439-.456h.281a.933.933 0 00-.544-.44zm3.128 1.248v.088h.088c.024-.234.264-.352.721-.352v-.351c-.539.176-.809.38-.809.615zm-2.408-.264h.176l.176-.175h-.176l-.176.175zm3.586.176l-.105.37h.281l.088-.37h-.264zm-3.058.897v.175c-.176 0-.264.06-.264.176h.264l.087-.263v-.088h-.087zm-.897.545h.281l.176-.194h-.264l-.193.194zm.984 1.705v.088h.194c0-.13.088-.194.264-.194v-.176l-.458.282zm.985-.282v.088l.193.282v.175c0 .176-.123.264-.369.264v.088h.457l.088-.44c-.117-.28-.24-.433-.369-.457zm-1.688.37v.175h.088l.176-.175h-.264zm.528.896l.175.176h.282v-.176h-.457zm-.809.527l.193.264.264-.088-.088-.351-.369.175zm2.777 0v.176h.282v-.176h-.282zm1.706-10.476v.896h-.176v-.175l-.088-.633.088-.088h.176zm-5.643 2.69c.305.035.457.21.457.527-.246.128-.369.28-.369.457h-.176v-.809l.088-.088v-.088zm17.385-17.368h.457l-.633.457v-.105l.176-.352zm-10.336.633h2.338l.088.088.087-.088h2.25v.088l-.175.264v.087h.088l.263-.175h.194c.117 0 .175.152.175.457l.264.088v12.04h-.088l-.088-.105h-.088l-.088.105v.088l.352.352v.809h-.176l.088-.088v-.088h-.264c0 .445-.152.803-.457 1.072h-.439v.457c.176 0 .264.147.264.44h.175c.094 0 .217-.24.37-.721l.439-.088v10.072l-.176.176h-.176l-.369-.264h-.088c0 .176-.058.264-.175.264h-.369c-.118 0-.176-.088-.176-.264h-.528c0 .176-.363.264-1.089.264h-.44l-.369-.088-.352.088h-1.177l-.264-.264v-.193c.363-1.008.662-1.512.896-1.512v-.105l-.175-.176v.281l-.457-.105v.281l-.088.44h-.176v-8.983c0-.117.27-.176.809-.176l.175-.263-.175-.282v-.527l.175-.281v-.264h-.088c0 .152-.146.27-.439.352l.088.105-.193.897h-.176l-.176-.194v-4.94h.457v-.175l-.193-.176-.264.088v-6.732l.176-.176h.176l.281.176v-.088l-.176-.281v-.176l.088-.088v-.088h-.545v-1.53l.176-.175zm6.644 0h3.867c3.387 0 5.842.926 7.366 2.777l.088-.088v.088l-.088.088c1.078 1.64 1.617 3.352 1.617 5.133v9.088c0 2.05-.539 3.726-1.617 5.027h-.176v.088l.088.281-.633.528h-.088v-.176h-.176l-.088.264.088.28c-1.242 1.313-3.966 1.97-8.173 1.97h-2.075l-.175-.176v-2.25l.175-.264-.175-.176v-1.705l.175-.193h3.428c.305 0 .574.094.809.281h.263v-.088l-.088-.281c1.793-.586 2.69-1.781 2.69-3.586v-9.193c-.399-1.969-1.477-2.953-3.235-2.953 0-.13-.175-.194-.527-.194l-.914.106-.088-.106v-.088l-.615.282-.457-.088v-.106l.088-.088v-.088h-.176l-.369.282h-.809l-.175-.194v-4.306l.175-.176zm-5.66.633h.194l.175-.194v-.175h-.088l-.281.369zm-.527.984l.808.088.088-.088v-.281h-.633l-.263.281zm17.156-.176h.176c0 .117.088.176.264.176v.264h-.176c-.117 0-.176-.088-.176-.264h-.088v.176h-.264l.264-.352zm-16.98 2.057l.087.088v.088l-.087.088v.105l.457.176h.088v-.088l-.194-.457h-.351zm-.545.37l.088.439.193-.176v-.264h-.281zm8.543.175l.175.176.088-.088v-.088h-.263zm-6.926.351l.088.088-.088.088v.282l.457-.088h.264v-.088l-.264-.282h-.088l-.088.088-.088-.088h-.193zm7.014.37v.263h-.176v-.088l.176-.175zm-7.366.351v.545l.088-.088h.088l.088.088v.44l-.176.193h-.176c0-.188-.152-.281-.457-.281h-.351v.175c.48 0 .896.364 1.248 1.09h.457v-.088c-.293 0-.504-.152-.633-.457 0-.363.211-.545.633-.545l-.176-.527c-.246 0-.369-.21-.369-.633l-.264.088zm12.85.545l.088.527h.176l-.088-.087v-.088l.175-.352h-.351zm-11.69.352v.088l.088.087-.088.106v.176l.282-.088v-.194l-.194-.175h-.088zm13.483.369l.176.176.088-.088v-.088h-.264zm-14.467 1.424v.105l.264.44h.457l-.633-.545h-.088zm3.691.544v.176h.264l-.176-.175h-.088zm11.584 8.737v.176h.545v.193h.088v-.193l-.281-.176h-.352zm-8.543 4.306l.721.282.088-.088v-.106c-.082 0-.17-.117-.264-.351l-.087-.088h-.176c-.094 0-.188.117-.282.352zm-1.617.194v.088h.545c0 .363.27.633.809.808l.088-.087v-.106c-.352 0-.528-.205-.528-.615l.176-.194-.281-.263-.264.088v-.088c-.363.14-.545.263-.545.369zm-2.425-8.736l.105.087v.264c0 .117-.094.176-.281.176l-.088.088v.088h.457v-.703h-.193zm6.117 8.736v.176l.175.351.37-.088-.194-.44h-.351zm-7.102-8.649l-.088.088v.264l.088-.088.457.088.264-.264-.721-.088zm-.439.616v.808l.175.282c.364-.083.545-.176.545-.282v-.088l-.457.088-.175-.263v-.088l.087-.457h-.175zm6.011 9.105v.264h.176v-.264h-.176zm.457.352v.088h.44v-.088h-.44zm-.193.28v.265l.193-.176v-.088h-.193zm-5.379-8.472v.176l.352.37h.088v-.089h-.176v-.105l.264-.352h-.528zm-2.795.633v.088h.088l.194-.176v-.088h-.088l-.194.176zm.457.633v.088c.117.14.176.346.176.615l.088-.088h.088l.369.281v-.28l-.457-.616h-.264zm0 .896v.264h.176v-.088l-.176-.176zm2.602.44v.281l.176.176h.088v-.281l-.176-.176h-.088zm-1.793.088v.193h.545v-.193h-.545zm1.529.369l-.176.44v.193c.235-.13.352-.31.352-.545l-.088-.088h-.088zm-2.25.44h.088c.246-.083.369-.17.369-.264h-.193l-.264.263zm0 .193l-.263.615.263.193.721-.193v-.088c-.422-.152-.633-.328-.633-.527h-.088zm1.617.263l-.088.088v.088h.264l-.176-.176zm1.266.545h-.721c0 .117.299.235.897.352h.088l.175-.176v-.281l-.439.105zm-1.529 1.512v.281l.175.176h.088l.176-.176c-.234 0-.351-.093-.351-.281h-.088zm1.968.633v.281l.264.088.106-.088v-.105l-.282-.176h-.088zm-.351.633c0 .363-.094.544-.281.544l-.528-.087c0 .175-.064.263-.193.263v.088l.457.176c.305-.117.457-.234.457-.352h.088l.088.088h.088c.011-.246.07-.369.175-.369a.485.485 0 00-.351-.351zm-3.779.632v.088h.351v-.263h-.176l-.175.175zm1.353 1.073c.41.152.615.334.615.545h.106c.293-.246.527-.37.703-.37l-.176-.175h-.808l-.264-.176-.176.176zm2.426.176v.544h.088l.176-.351-.088-.37-.176.177zm.351.193v.088l.176-.194v-.087l-.176.193zm-3.779.527l.106.281c.269-.117.416-.24.439-.369v-.088h-.351l-.194.176zm21.024-24.574v.264h.087c0-.141.124-.229.37-.264l.175.264v.175c-.175 0-.263.094-.263.282l-.369.175-.352-.087c-.117.27-.234.416-.352.439l-.087-.088h-.106l-.264.352.545.105v.615c-.246 0-.369.088-.369.264h-.351v-.984l.088-.791-.088-.633.088-.088h1.248zm1.16 0h3.041l.176.176v2.408h-.176c0-.352-.059-.527-.176-.527l-.176.175v.176c0 .117.176.24.528.37v2.76l-.616-.089h-.088v.088l.704.281v1.073h-.264v.175c.176 0 .264.059.264.176v4.29c-.235 0-.352.21-.352.632l.088.088-.264.176h-.263c-.118 0-.176-.153-.176-.457h-.106c0 .304-.088.457-.263.457h-.44l-.176-.176v-.37c.176 0 .264-.058.264-.175l-.088-.44-.088.088h-.088l.088.088v.264l-.193.176h-.264c-.293-.106-.439-.37-.439-.791v-.106l.263-.088-.175-.527c.234 0 .351-.152.351-.457h.721v-.352h.527l.106-.087h.088c0-.176-.123-.264-.369-.264l-.088-.545-.088.088h-.088l.088.088v.193l-.264.264-.369.088v.263l-.088-.088h-.176l-.176.545-.351-.193v.193h-.897v-.369l.088-.44c-.175 0-.263-.058-.263-.175v-.37l.263-.087c.106.422.346.633.721.633v-.088c-.305-.176-.457-.387-.457-.633l.176-.176.088.088h.457v-.527c0-.129.088-.194.263-.194v-.175c-.351 0-.527-.176-.527-.528l-.088.088h-.105l-.791-.175-.088.087v-.175c.176 0 .263-.065.263-.194v-.263h-.175v.175l-.457-.088h-.176v.088h.176v.176l-.352.106v-.457h.264v-.352l-.088-.088V23.7a.554.554 0 00.351-.545h.282l.263.264-.175.193.175.528h.176v-.352h.088l.176.176-.088.088v.088h.176l.545-.176v-.176c-.34 0-.727-.21-1.161-.633v-.72h-.175c0 .14-.123.322-.37.544l-.087-.087h-.44l.176.615c0 .187-.24.428-.721.72v.088h-.351v-.703l.175-.633h-.175v-.351h.175v.264c.446 0 .686-.118.721-.352v-.105h-.088v.193c-.48-.059-.72-.27-.72-.633l.351-.264h.545l-.088.44v.176h.088c.012-.235.07-.352.176-.352l-.176-.808.176-.176v-.088c-.176 0-.264-.059-.264-.176l-.088.088h-.088l-.281-.264v-.088c.305 0 .457-.123.457-.369l-.088-.088.088-.087.088.087h.264l.457-.087.088.544h.088c.199-.187.375-.28.527-.28v-.177l-.352-.087.264-.81c-.152 0-.27-.175-.352-.526l.176-.264.44.176.105-.088-.193-.545v-.088zm4.394 0h2.145l.176.176-.176.175v.282h.088c.175 0 .263-.211.263-.633h1.512l.088.088.105-.088h1.161c.035.293.123.44.263.44l.088-.088h.088l-.088-.088v-.264h2.233v.264l.087-.088.088.088h.176v-.088l-.088-.088v-.088h3.217l.193.176v4.289l-.193.176h-2.32v-.264c-.117 0-.176.088-.176.264h-5.098l-.263-.176-.264.176h-3.305l-.193-.176v-.703l.088-.106-.088-.088v-2.76h.193v-.263h-.193v-.37l.193-.175zm-3.129.633l-.193.351h.193l.176-.175-.176-.176zm1.161.176c.117.468.234.703.351.703l.264-.264c-.117 0-.176-.146-.176-.44l-.088-.087h-.088l-.263.088zm2.584.351l.263.176.088-.264-.088-.088h-.088l-.175.176zm-4.377.352h.087l.264-.264h-.088l-.263.264zm11.794-.264c0 .246-.175.37-.527.37l-.088-.106-.088.369h.528l.263-.545v-.088h-.088zm-4.376.264l-.088.369h.175l.176-.176-.263-.193zm-6.698.193v.44h-.088l-.193-.176.088-.088h-.264v.527h-.176v.176h.176c0-.211.27-.328.809-.352.14-.234.287-.351.439-.351v-.176h-.791zm4.729.176v.351l.176-.175v-.176h-.176zm5.273.44h.264v-.264l-.264.263zm-6.433.175l-.088.088v.105l.088.088h.088l.087-.088.264.352v.527h.106l.263-.088v-.087a1.82 1.82 0 00-.808-.897zm-4.465.457v.088h.176l.087-.264h-.087l-.176.176zm-1.442.176v.176h.106l.439-.088v-.264l-.545.176zm2.778 0l.088.44h-.176v.28h.088l.808-.369h.088v-.087l-.439-.088h-.281v-.176h-.176zm-2.145.088v.263h.176v-.263h-.176zm.897.351v.088h.175l.176-.176-.088-.087h-.088l-.175.175zm7.33-.088v.176h.176l.175-.176h-.351zm-2.69.176v.194h.176l.193-.194h-.369zm4.834 0l-.176.545h.088l.264-.264v-.28h-.176zm-9.65.281v.264h.176v-.264h-.176zm5.449.088v.352h.088l.088-.264-.088-.088h-.088zm5.449.176v.176l.176.176v-.352h-.176zm-9.386.72h-.528l-.193-.175-.264.088v.352l.457.087.088-.087.897.263v-.088c0-.117-.094-.175-.282-.175v-.088l.37-.352h.527l.088-.281-.088-.088h-.176l-.896.545zm-.721 1.249l-.088.088v.088l.281.263.088-.088h.176c.293 0 .439.123.439.37h.282v-.106c-.246-.258-.639-.463-1.178-.615zm1.266.72h.351l-.176-.193-.175.194zm-4.922-.105h.175l.088.457-.088.615-.175-.175v-.897zm3.937.106v.175c.117 0 .176.118.176.352h.176l-.264-.44v-.087h-.088zm-3.041.175c.129 0 .305.3.527.897h.088l.106-.457c-.188 0-.281-.059-.281-.176l.457-.088.439.264h.088v.264l-.176.193h-.439c0 .27-.094.474-.282.615h.088l-.088.088v.088l.194.545-.281.176-.264-.264h-.088l-.176.176c0 .457.205.726.615.808v.088l.088-.088h.106l.176.176v.615c-.305 0-.457.065-.457.194v.088c.105.234.316.351.632.351 0-.351.059-.527.176-.527v.088l.264-.088v-.106c0-.117-.088-.175-.264-.175l-.088-.088v-.264l.176-.264c.481 0 .721.205.721.616-.117 0-.176.152-.176.457h-.193v.263c.785.551 1.177.88 1.177.985 0 .117.147.175.44.175l.088.088v.457l-.088.44h.088l.457-.176.088.088v-.176c0-.117-.123-.176-.369-.176 0-.129.152-.193.457-.193v-.088l.527.193v-.105l.088-.352h.176v2.057l-.088.633.088.79v5.907c0 .211-.118.451-.352.72v.177l.088-.088h.264v.088l-.088.087.088.44v1.16l-.528.545h-.439l-.281-.176.087-.088v-.28l-.527.192v.176h-.545v-.369l.369-.176h.088v-.088l-.176-.175h-.105c0 .152-.176.334-.527.544l-.545-.105c.07-.41.164-.615.281-.615h.439c0-.176.153-.264.457-.264l.352-.545v-.088h-.352v-.527h.352l.527.44h.194v-.088c-.305 0-.457-.182-.457-.545v-.088c.246 0 .427-.147.545-.44h.087v.176h.176v-.264l-.176-.72h-.175l-.282.545.194.175-.985.703-.281-.087v.087c0 .27-.234.452-.703.545-.129-.27-.311-.415-.545-.439v-.281l.176-.176h.088l.457.088-.088-.088v-.088l.176-.527h-.457l.105.088v.175h-.281l-.176-.369v-.088h-.088c0 .422-.058.633-.176.633h-.175l-.282-.088v.088l-.175.527-.088-.087h-.088l-.176.193c.422 0 .633.117.633.352l.088.439-.721.088.088.088v.633c.363 0 .545.058.545.175v.545h-.545c-.106 0-.193-.181-.264-.545-.422 0-.633-.058-.633-.175v-.633h.176v-.088c-.234 0-.351-.059-.351-.176v-1.6l.632-.544h-.632v-.088l.175-.264v-.264l-.175-.28v-5.274c0-.117.088-.176.263-.176v-.088c-.175 0-.263-.059-.263-.176v-1.969l.175-.175h.088l.088.088h.088v-.088l-.439-.457v-3.48h.175l.176.175h-.088l.088.281h.194v-.457c0-.117.175-.176.527-.176v-.087l-.633-.176v-.194l.106-.087v-.088l-.106-.088a.854.854 0 00.457-.528zm3.393.44v.264h.176l-.088-.264h-.088zm.176.457c0 .305-.088.48-.264.527l-.352-.088-.633.088v.264l1.249-.264.175-.176v-.175l-.175-.176zm2.32 1.6c.375 0 .644.269.808.808l-.087.088h.175l.088-.088.088.088h.106l.263-.264-.457-.457v-.175h.088l.106.087h.087l.088-.088.44.088h.72l.44-.088v.088l.088-.088h.281l.264.088.439-.088h1.529l.704.176.193-.175h.088l.088.087.088-.088h3.568l.176.176v.088h-.088l-.44-.088-.087.088v.088l.72.193.088-.28h.176v1.616c-.434-.058-.762-.21-.984-.457h-.545v-.175h-.528c0-.235-.123-.352-.369-.352v.088c.141.539.293.808.457.808.176 0 .264.088.264.264l.088.088h.088c0-.234.093-.352.281-.352l.264-.175.527.351h.193l.088-.088h.088l.088.616v1.177l-.088.088.088.088v.088l-.088.615-.633-.088-.176.194h-.175v-.106l-.633.106h-1.072l-.088-.106-.088.106H172l-.088-.106-.088.106h-.527l-.369-.106-.352.106h-.633l-.175-.194-.704.194h-2.337c-.118 0-.235-.182-.352-.545h-.088l-.176.263-.281-.087v.087c0 .188-.146.282-.439.282h-.528v-.194h.44v-.088l-.088-.087.088-.264h.088l.088.088h.087l.088-.088v-.44c0-.128-.088-.193-.263-.193l-.088.088h-.088l-.264-.088.088.088-.088.105v.088l.088.264-.176.44h-.193V30.66l.088-.088-.088-.088v-1.88h.088c.129 0 .222.24.281.72h.088c0-.363.059-.603.176-.72v-.088l-.545-.528v-.281l.105-.088-.105-.088v-.175zm-6.346.175l-.088.282.088.087h.106l.175-.28-.088-.089h-.193zm9.211.176v.105l.264-.105v-.176h-.088l-.176.176zm.369-.088v.194h.088l.264-.106v-.176h-.088l-.264.088zm-5.01.281l.176.176h.176v-.088l-.088-.281h-.088l-.176.193zm8.579 0c.175 0 .386.118.632.352 0-.176.088-.264.264-.264 0 .094.205.24.615.44v-.176c-.281 0-.545-.182-.791-.545h-.545l-.175.193zm-9.387.176v.088l.088.264h.351v-.176l-.351-.176h-.088zm5.713.176v.264h.193v-.088l-.193-.176zm-1.688.176a.76.76 0 00.44.72l.457-.632v-.088h-.088c0 .117-.123.175-.369.175v.176h-.088v-.175l-.176-.176h-.176zm-7.506.351l-.088.106v.263l.264-.263-.088-.106h-.088zm11.795 0v.194h.44v-.194l-.088.106h-.088l-.264-.106zm-2.865.194v.088l.088.263h.088l.193-.176-.369-.175zm4.658.175l.088.352h.176l.176-.176-.176-.176h-.264zm-6.539.176v.176h.194c0 .117.087.176.263.176v.633h.176l.088-.457c-.34-.352-.58-.528-.721-.528zm6.627.352v.369h.088v-.37h-.088zm1.688.176l.088.457.281-.264-.194-.193h-.175zm-6.786.193l.176.264-.439.175c0 .094.117.182.351.264 0-.094.147-.182.44-.264l.088.088-.088-.351-.088.088h-.176v-.264h-.264zm3.745.176v.351l.281.088.176-.527-.457.088zm-11.795.72h.263v.088l-.439.088v.176h.176v.352l.088.457-.528.175v-.087l-.457.087v.088l.088.088v.088l.897-.176v.176h.175v-.633h.457l-.087-.351.087-.264h.616l.281.264-.088.088v.175l.176.194v-.282h.176l.351.37v.088l-.088.087.088.088v.088l-.088.44h.176l.088-.703.105.087h.176v-.087c-.117 0-.176-.153-.176-.458-.304-.035-.457-.123-.457-.263l.352-.721h-.264v.193h-.263l-.088-.105h-.088l.088-.44v-.087h-.176l-.088.527-.088-.088h-.105l-.088.281h-.615v.352h-.37v-.176h.194v-.088l-.088-.281h.088c.14 0 .258-.205.351-.615h-.351l-.457.72zm6.433-.369v.088h.088l.457-.088v-.175h-.088l-.457.175zm6.434-.088v.176l.281.633h.088v-.545c-.117 0-.176-.088-.176-.264h-.193zm-2.32.897v.264h.087l.282-.088v-.088l-.369-.088zm2.513 0c0 .176-.064.264-.193.264v.175l.369-.175v-.264h-.176zm-12.252.72c0 .294-.058.44-.175.44l-.264-.088c.117.14.176.352.176.633h.175c.106 0 .194-.152.264-.457l-.088-.088.352-.176v.176h.088v-.351l-.528-.088zm2.778.089v.351c.082 0 .17-.117.263-.351h-.263zm-.457.527v.088l.175.175v-.263h-.175zm-3.832.369v.176l.263.088.088-.088v-.457h-.088l-.263.28zm3.216.527v.264h.088l.264-.088v-.176h-.352zm.879.264v.088l.106.633h.263c0-.293.147-.44.44-.44-.035-.234-.211-.416-.527-.545l-.282.264zm-3.744.281v.176l.264.264.457-.176v-.088l-.194-.176-.439.088-.088-.088zm2.233.176v.176h.351l.281-.264v-.088h-.105l-.527.176zm1.423.44l-.087.369h.175v-.37h-.088zm-3.832.456l-.088.088v.088h.088v-.088l.088.088h.176v-.088l-.264-.087zm.352.176v.088l.264.264v-.088l-.264-.264zm2.584 0v.176l.545.088v.088c0 .199-.088.41-.264.633v.087h.176c.117 0 .176-.123.176-.369l.545-.087v-.44l-1.178-.176zm-1.775.44v.088h.351v-.176h-.088l-.263.088zm-1.442.457v.175h.193l-.087.088v.088l.087.264h-.087l-.282.088v.088h.282c.211-.41.597-.616 1.16-.616v-.175l-.809.175-.176-.175h-.281zm4.746 0l-.088.088v.263c.176 0 .264.117.264.352h.264c-.235-.27-.352-.475-.352-.615h.176v-.088h-.264zm-4.289 1.512v.351l.44-.527-.088-.088-.352.264zm4.026.175c0 .305-.153.457-.457.457v.088l.72.088v-.545l-.263-.088zm3.128.264h.528l.369.281c0-.187.059-.281.176-.281h.791v.105l-.088.088v.088l.088.088h.105l.352-.37h3.041l.263.194.352-.193c.199.07.322.193.369.369l-.088.088.703.352v-.176c-.222 0-.369-.211-.439-.633h1.512c.246 0 .668.181 1.265.545l.176-.176-.088-.088v-.281h1.16l.176.193v.703l-.545.809h.088l.369-.264h.088v1.16l-.088.088.088.088v.088l-.176.264.176.281v1.16l-.176.176h-3.586v-.088l.37-.088v-.088h-.194v.088l-.088-.088h-.263V43h-1.424l-.457-.352.281-.545c-.527-.058-.855-.146-.984-.263l-.633.263v.264c.176 0 .263.094.263.281h-.087l.087.088v.088l-.175.176h-1.248v-.088c0-.117.088-.176.263-.176l-.263-.369h-.44v-.176h-.545c0 .305-.176.457-.527.457l-.193-.193v-.615h.281l-.088-.088v-.545l.088-.088v-.088c-.199-.175-.381-.263-.545-.263v-.088l.088-.088-.088-.088v-.088l.176-.281c-.035-.153-.182-.3-.44-.44l-.369.176.106.44c0 .199-.094.41-.282.632v.176c0 .14.153.229.457.264v.193h-.281c0 .176.123.264.369.264v.896h.352v.088l-.176.176h-1.16c0-.176-.117-.264-.352-.264l-.105-.088v-.545l.193-.263v-.352h-.281v-.72l.545-.458c0-.175.117-.263.351-.263v-.176h-.351l.176-.896c.117 0 .175.087.175.263.246 0 .37-.117.37-.351l.087-.088-.087-.088h-.106v-.264l.193-.193zm-6.978.369l.176.176.263-.088v-.088h-.439zm9.914.176v.176h.193v-.352l-.193.176zm1.072-.176v.088l.281.088v-.088l-.087-.088h-.194zm-11.25.264v.088l.176.175h.088v-.175l-.088-.088h-.176zm13.131 0v.457l.176-.194-.088-.263h-.088zm-1.424.263l.176.194.176-.194h-.352zm-5.818.088h.193l.176.194v.351h-.369v-.545zm-5.625.194v.087l.176.176.175-.175-.351-.088zm12.603.087l-.087.088v.264h.087c0-.176.059-.264.176-.264v-.087h-.176zm2.954.176v.176l.087.44h.088l.088-.528-.088-.088h-.175zm-2.514.44v.175l.369-.087v-.352l-.264.264h-.105zm-1.951-.088v.545l.088.088v.088h-.282c0 .093.182.21.545.351v-.088l-.088-.088v-.087l.088-.088-.263-.088c.023-.305.111-.457.263-.457l-.176-.176h-.175zm5.713 0l-.176.176c.058.457.146.755.264.896l-.352.545h.176c0-.117.088-.176.263-.176v-.281l-.087-.44.351-.087.106.088.087-.088-.087-.37-.457.106-.088-.105.088-.088v-.176h-.088zm-8.227.176v.087l.545.458.176-.176h.351l.809.703.088-.088v-.088c-.235 0-.352-.146-.352-.44l.088-.456-.264.369h-.193l-.615-.282-.369.106-.264-.193zm4.289 0v.087l.088.282h.088v-.088l-.088-.281h-.088zm-13.307.369c0 .176-.093.264-.281.264l.194.175-.106.088v.176h.457v-.088c-.117-.129-.176-.334-.176-.615h-.088zm12.78 0v1.336c.199.281.433.457.703.527v-.088l-.352-.615.176-.37-.351-.35v-.44h-.176zm1.511.088v.175l.088.088h.176v-.087l-.176-.176h-.088zm.809.088l.088.087.088.088c.117 0 .176.117.176.352l.281.088.088-.088v-.176l-.545-.351h-.176zm-1.248.175v.264l-.088.457h.088l.176-.176v-.545h-.176zm-12.252.088v.457l-.176.176-.175-.545.087-.088h.264zm2.69.897v.088h.087c.352-.059.528-.147.528-.264v-.088h-.352l-.263.264zm7.136.175c.328 0 .569.182.721.545h.088v.176l-.44.176h-.175c0-.246-.123-.486-.37-.72l.176-.177zm-2.496.457h.264l.369.352V43h-.809l-.175-.176.351-.264zm-9.387.088l.088.088v.088l-.175.176-.088-.088v-.088l.175-.176z" fill="#fff"/><path fill="#FDCA16" d="M64 51h100v3H64z"/></svg>